<svg width="1576" height="1497" viewBox="0 0 1576 1497" fill="none" xmlns="http://www.w3.org/2000/svg">
<path d="M1517.58 520.472C1508.93 511.139 1496.84 506 1483.5 506C1470.09 506 1457.96 511.108 1449.35 520.383C1440.64 529.76 1436.4 542.504 1437.39 556.265C1439.37 583.414 1460.05 605.499 1483.5 605.499C1506.95 605.499 1527.6 583.419 1529.6 556.274C1530.61 542.637 1526.34 529.92 1517.58 520.472ZM1561.77 704.999H1405.23C1403.18 705.025 1401.15 704.596 1399.29 703.74C1397.43 702.885 1395.78 701.626 1394.47 700.055C1391.58 696.604 1390.42 691.891 1391.28 687.124C1395.03 666.327 1406.74 648.857 1425.16 636.593C1441.51 625.706 1462.23 619.714 1483.5 619.714C1504.77 619.714 1525.49 625.71 1541.84 636.593C1560.26 648.853 1571.97 666.323 1575.72 687.12C1576.58 691.886 1575.42 696.599 1572.53 700.05C1571.22 701.622 1569.57 702.882 1567.71 703.738C1565.85 704.594 1563.82 705.025 1561.77 704.999Z" fill="#A398F0"/>
<path d="M822.582 14.4718C813.928 5.13932 801.841 0 788.5 0C775.088 0 762.961 5.10823 754.347 14.383C745.64 23.7599 741.397 36.5038 742.394 50.265C744.368 77.4141 765.051 99.4994 788.5 99.4994C811.949 99.4994 832.596 77.4185 834.602 50.2739C835.611 36.6371 831.342 23.9198 822.582 14.4718ZM866.767 198.999H710.233C708.184 199.025 706.155 198.596 704.293 197.74C702.432 196.885 700.784 195.626 699.471 194.055C696.581 190.604 695.416 185.891 696.278 181.124C700.032 160.327 711.745 142.857 730.155 130.593C746.511 119.706 767.23 113.714 788.5 113.714C809.77 113.714 830.489 119.71 846.845 130.593C865.255 142.853 876.968 160.323 880.722 181.12C881.584 185.886 880.419 190.599 877.529 194.05C876.216 195.622 874.569 196.882 872.707 197.738C870.846 198.594 868.816 199.025 866.767 198.999Z" fill="#A398F0"/>
<path d="M126.582 520.472C117.928 511.139 105.841 506 92.5 506C79.0879 506 66.9609 511.108 58.3471 520.383C49.6399 529.76 45.3975 542.504 46.3936 556.265C48.368 583.414 69.051 605.499 92.5 605.499C115.949 605.499 136.596 583.419 138.602 556.274C139.611 542.637 135.342 529.92 126.582 520.472ZM170.767 704.999H14.2329C12.184 705.025 10.155 704.596 8.29336 703.74C6.43175 702.885 4.78441 701.626 3.4712 700.055C0.580657 696.604 -0.584456 691.891 0.278261 687.124C4.03152 666.327 15.7449 648.857 34.1555 636.593C50.5115 625.706 71.23 619.714 92.5 619.714C113.77 619.714 134.489 625.71 150.845 636.593C169.255 648.853 180.968 666.323 184.722 687.12C185.584 691.886 184.419 696.599 181.529 700.05C180.216 701.622 178.569 702.882 176.707 703.738C174.846 704.594 172.816 705.025 170.767 704.999Z" fill="#A398F0"/>
<path d="M393.582 1312.47C384.928 1303.14 372.841 1298 359.5 1298C346.088 1298 333.961 1303.11 325.347 1312.38C316.64 1321.76 312.397 1334.5 313.394 1348.26C315.368 1375.41 336.051 1397.5 359.5 1397.5C382.949 1397.5 403.596 1375.42 405.602 1348.27C406.611 1334.64 402.342 1321.92 393.582 1312.47ZM437.767 1497H281.233C279.184 1497.03 277.155 1496.6 275.293 1495.74C273.432 1494.89 271.784 1493.63 270.471 1492.05C267.581 1488.6 266.416 1483.89 267.278 1479.12C271.032 1458.33 282.745 1440.86 301.155 1428.59C317.511 1417.71 338.23 1411.71 359.5 1411.71C380.77 1411.71 401.489 1417.71 417.845 1428.59C436.255 1440.85 447.968 1458.32 451.722 1479.12C452.584 1483.89 451.419 1488.6 448.529 1492.05C447.216 1493.62 445.569 1494.88 443.707 1495.74C441.846 1496.59 439.816 1497.02 437.767 1497Z" fill="#A398F0"/>
<path d="M1252.58 1312.47C1243.93 1303.14 1231.84 1298 1218.5 1298C1205.09 1298 1192.96 1303.11 1184.35 1312.38C1175.64 1321.76 1171.4 1334.5 1172.39 1348.26C1174.37 1375.41 1195.05 1397.5 1218.5 1397.5C1241.95 1397.5 1262.6 1375.42 1264.6 1348.27C1265.61 1334.64 1261.34 1321.92 1252.58 1312.47ZM1296.77 1497H1140.23C1138.18 1497.03 1136.15 1496.6 1134.29 1495.74C1132.43 1494.89 1130.78 1493.63 1129.47 1492.05C1126.58 1488.6 1125.42 1483.89 1126.28 1479.12C1130.03 1458.33 1141.74 1440.86 1160.16 1428.59C1176.51 1417.71 1197.23 1411.71 1218.5 1411.71C1239.77 1411.71 1260.49 1417.71 1276.84 1428.59C1295.26 1440.85 1306.97 1458.32 1310.72 1479.12C1311.58 1483.89 1310.42 1488.6 1307.53 1492.05C1306.22 1493.62 1304.57 1494.88 1302.71 1495.74C1300.85 1496.59 1298.82 1497.02 1296.77 1497Z" fill="#A398F0"/>
<path d="M1424.58 812.854C1425.61 809.703 1423.88 806.318 1420.73 805.294C1417.58 804.27 1414.19 805.994 1413.17 809.146L1424.58 812.854ZM1280.65 1222.68C1282.16 1225.63 1285.77 1226.8 1288.72 1225.3L1336.84 1200.78C1339.79 1199.28 1340.96 1195.67 1339.46 1192.71C1337.96 1189.76 1334.34 1188.59 1331.39 1190.09L1288.62 1211.88L1266.83 1169.12C1265.33 1166.16 1261.71 1164.99 1258.76 1166.49C1255.81 1168 1254.63 1171.61 1256.14 1174.56L1280.65 1222.68ZM1413.17 809.146L1280.29 1218.1L1291.71 1221.81L1424.58 812.854L1413.17 809.146Z" fill="#A398F0"/>
<path d="M1004 1430C1007.31 1430 1010 1427.31 1010 1424C1010 1420.69 1007.31 1418 1004 1418V1430ZM569.757 1419.76C567.414 1422.1 567.414 1425.9 569.757 1428.24L607.941 1466.43C610.284 1468.77 614.083 1468.77 616.426 1466.43C618.77 1464.08 618.77 1460.28 616.426 1457.94L582.485 1424L616.426 1390.06C618.77 1387.72 618.77 1383.92 616.426 1381.57C614.083 1379.23 610.284 1379.23 607.941 1381.57L569.757 1419.76ZM1004 1418H574V1430H1004V1418Z" fill="#A398F0"/>
<path d="M262.473 474.893C259.792 476.841 259.198 480.593 261.146 483.274C263.094 485.955 266.846 486.549 269.527 484.602L262.473 474.893ZM619.803 227.938C620.322 224.666 618.089 221.592 614.816 221.074L561.481 212.626C558.208 212.108 555.134 214.341 554.616 217.614C554.098 220.887 556.331 223.96 559.604 224.479L607.013 231.987L599.504 279.396C598.985 282.669 601.218 285.743 604.491 286.261C607.764 286.78 610.838 284.547 611.356 281.274L619.803 227.938ZM269.527 484.602L617.404 231.854L610.351 222.146L262.473 474.893L269.527 484.602Z" fill="#A398F0"/>
<path d="M286.171 1221.81C287.195 1224.96 290.58 1226.68 293.731 1225.66C296.883 1224.64 298.608 1221.25 297.584 1218.1L286.171 1221.81ZM161.724 805.654C158.771 804.149 155.158 805.323 153.654 808.276L129.138 856.39C127.634 859.343 128.808 862.956 131.761 864.46C134.713 865.965 138.326 864.791 139.831 861.838L161.622 819.07L204.39 840.861C207.343 842.366 210.956 841.192 212.46 838.239C213.965 835.287 212.791 831.674 209.838 830.169L161.724 805.654ZM297.584 1218.1L164.706 809.146L153.294 812.854L286.171 1221.81L297.584 1218.1Z" fill="#A398F0"/>
<path d="M965.527 222.146C962.846 220.198 959.094 220.792 957.146 223.473C955.198 226.154 955.792 229.906 958.473 231.854L965.527 222.146ZM1310.82 485.674C1314.09 485.155 1316.32 482.082 1315.8 478.809L1307.36 425.474C1306.84 422.201 1303.76 419.968 1300.49 420.486C1297.22 421.005 1294.99 424.078 1295.5 427.351L1303.01 474.76L1255.6 482.269C1252.33 482.787 1250.1 485.861 1250.62 489.134C1251.13 492.407 1254.21 494.64 1257.48 494.121L1310.82 485.674ZM958.473 231.854L1306.35 484.602L1313.4 474.894L965.527 222.146L958.473 231.854Z" fill="#A398F0"/>
</svg>
