<svg width="1576" height="1497" viewBox="0 0 1576 1497" fill="none" xmlns="http://www.w3.org/2000/svg">
<path d="M1517.58 520.472C1508.93 511.139 1496.84 506 1483.5 506C1470.09 506 1457.96 511.108 1449.35 520.383C1440.64 529.76 1436.4 542.504 1437.39 556.265C1439.37 583.414 1460.05 605.499 1483.5 605.499C1506.95 605.499 1527.6 583.419 1529.6 556.274C1530.61 542.637 1526.34 529.92 1517.58 520.472ZM1561.77 704.999H1405.23C1403.18 705.025 1401.15 704.596 1399.29 703.74C1397.43 702.885 1395.78 701.626 1394.47 700.055C1391.58 696.604 1390.42 691.891 1391.28 687.124C1395.03 666.327 1406.74 648.857 1425.16 636.593C1441.51 625.706 1462.23 619.714 1483.5 619.714C1504.77 619.714 1525.49 625.71 1541.84 636.593C1560.26 648.853 1571.97 666.323 1575.72 687.12C1576.58 691.886 1575.42 696.599 1572.53 700.05C1571.22 701.622 1569.57 702.882 1567.71 703.738C1565.85 704.594 1563.82 705.025 1561.77 704.999Z" fill="#A398F0"/>
<path d="M822.582 14.4718C813.928 5.13932 801.841 0 788.5 0C775.088 0 762.961 5.10823 754.347 14.383C745.64 23.7599 741.397 36.5038 742.394 50.265C744.368 77.4141 765.051 99.4994 788.5 99.4994C811.949 99.4994 832.596 77.4185 834.602 50.2739C835.611 36.6371 831.342 23.9198 822.582 14.4718ZM866.767 198.999H710.233C708.184 199.025 706.155 198.596 704.293 197.74C702.432 196.885 700.784 195.626 699.471 194.055C696.581 190.604 695.416 185.891 696.278 181.124C700.032 160.327 711.745 142.857 730.155 130.593C746.511 119.706 767.23 113.714 788.5 113.714C809.77 113.714 830.489 119.71 846.845 130.593C865.255 142.853 876.968 160.323 880.722 181.12C881.584 185.886 880.419 190.599 877.529 194.05C876.216 195.622 874.569 196.882 872.707 197.738C870.846 198.594 868.816 199.025 866.767 198.999Z" fill="#A398F0"/>
<path d="M126.582 520.472C117.928 511.139 105.841 506 92.5 506C79.0879 506 66.9609 511.108 58.3471 520.383C49.6399 529.76 45.3975 542.504 46.3936 556.265C48.368 583.414 69.051 605.499 92.5 605.499C115.949 605.499 136.596 583.419 138.602 556.274C139.611 542.637 135.342 529.92 126.582 520.472ZM170.767 704.999H14.2329C12.184 705.025 10.155 704.596 8.29336 703.74C6.43175 702.885 4.78441 701.626 3.4712 700.055C0.580657 696.604 -0.584456 691.891 0.278261 687.124C4.03152 666.327 15.7449 648.857 34.1555 636.593C50.5115 625.706 71.23 619.714 92.5 619.714C113.77 619.714 134.489 625.71 150.845 636.593C169.255 648.853 180.968 666.323 184.722 687.12C185.584 691.886 184.419 696.599 181.529 700.05C180.216 701.622 178.569 702.882 176.707 703.738C174.846 704.594 172.816 705.025 170.767 704.999Z" fill="#A398F0"/>
<path d="M393.582 1312.47C384.928 1303.14 372.841 1298 359.5 1298C346.088 1298 333.961 1303.11 325.347 1312.38C316.64 1321.76 312.397 1334.5 313.394 1348.26C315.368 1375.41 336.051 1397.5 359.5 1397.5C382.949 1397.5 403.596 1375.42 405.602 1348.27C406.611 1334.64 402.342 1321.92 393.582 1312.47ZM437.767 1497H281.233C279.184 1497.03 277.155 1496.6 275.293 1495.74C273.432 1494.89 271.784 1493.63 270.471 1492.05C267.581 1488.6 266.416 1483.89 267.278 1479.12C271.032 1458.33 282.745 1440.86 301.155 1428.59C317.511 1417.71 338.23 1411.71 359.5 1411.71C380.77 1411.71 401.489 1417.71 417.845 1428.59C436.255 1440.85 447.968 1458.32 451.722 1479.12C452.584 1483.89 451.419 1488.6 448.529 1492.05C447.216 1493.62 445.569 1494.88 443.707 1495.74C441.846 1496.59 439.816 1497.02 437.767 1497Z" fill="#A398F0"/>
<path d="M1252.58 1312.47C1243.93 1303.14 1231.84 1298 1218.5 1298C1205.09 1298 1192.96 1303.11 1184.35 1312.38C1175.64 1321.76 1171.4 1334.5 1172.39 1348.26C1174.37 1375.41 1195.05 1397.5 1218.5 1397.5C1241.95 1397.5 1262.6 1375.42 1264.6 1348.27C1265.61 1334.64 1261.34 1321.92 1252.58 1312.47ZM1296.77 1497H1140.23C1138.18 1497.03 1136.15 1496.6 1134.29 1495.74C1132.43 1494.89 1130.78 1493.63 1129.47 1492.05C1126.58 1488.6 1125.42 1483.89 1126.28 1479.12C1130.03 1458.33 1141.74 1440.86 1160.16 1428.59C1176.51 1417.71 1197.23 1411.71 1218.5 1411.71C1239.77 1411.71 1260.49 1417.71 1276.84 1428.59C1295.26 1440.85 1306.97 1458.32 1310.72 1479.12C1311.58 1483.89 1310.42 1488.6 1307.53 1492.05C1306.22 1493.62 1304.57 1494.88 1302.71 1495.74C1300.85 1496.59 1298.82 1497.02 1296.77 1497Z" fill="#A398F0"/>
<path d="M1424.58 812.854C1425.61 809.703 1423.88 806.318 1420.73 805.294C1417.58 804.27 1414.19 805.994 1413.17 809.146L1424.58 812.854ZM1280.65 1222.68C1282.16 1225.63 1285.77 1226.8 1288.72 1225.3L1336.84 1200.78C1339.79 1199.28 1340.96 1195.67 1339.46 1192.71C1337.96 1189.76 1334.34 1188.59 1331.39 1190.09L1288.62 1211.88L1266.83 1169.12C1265.33 1166.16 1261.71 1164.99 1258.76 1166.49C1255.81 1168 1254.63 1171.61 1256.14 1174.56L1280.65 1222.68ZM1413.17 809.146L1280.29 1218.1L1291.71 1221.81L1424.58 812.854L1413.17 809.146Z" fill="#A398F0"/>
<path d="M1004 1430C1007.31 1430 1010 1427.31 1010 1424C1010 1420.69 1007.31 1418 1004 1418V1430ZM569.757 1419.76C567.414 1422.1 567.414 1425.9 569.757 1428.24L607.941 1466.43C610.284 1468.77 614.083 1468.77 616.426 1466.43C618.77 1464.08 618.77 1460.28 616.426 1457.94L582.485 1424L616.426 1390.06C618.77 1387.72 618.77 1383.92 616.426 1381.57C614.083 1379.23 610.284 1379.23 607.941 1381.57L569.757 1419.76ZM1004 1418H574V1430H1004V1418Z" fill="#A398F0"/>
<path d="M262.473 474.893C259.792 476.841 259.198 480.593 261.146 483.274C263.094 485.955 266.846 486.549 269.527 484.602L262.473 474.893ZM619.803 227.938C620.322 224.666 618.089 221.592 614.816 221.074L561.481 212.626C558.208 212.108 555.134 214.341 554.616 217.614C554.098 220.887 556.331 223.96 559.604 224.479L607.013 231.987L599.504 279.396C598.985 282.669 601.218 285.743 604.491 286.261C607.764 286.78 610.838 284.547 611.356 281.274L619.803 227.938ZM269.527 484.602L617.404 231.854L610.351 222.146L262.473 474.893L269.527 484.602Z" fill="#A398F0"/>
<path d="M286.171 1221.81C287.195 1224.96 290.58 1226.68 293.731 1225.66C296.883 1224.64 298.608 1221.25 297.584 1218.1L286.171 1221.81ZM161.724 805.654C158.771 804.149 155.158 805.323 153.654 808.276L129.138 856.39C127.634 859.343 128.808 862.956 131.761 864.46C134.713 865.965 138.326 864.791 139.831 861.838L161.622 819.07L204.39 840.861C207.343 842.366 210.956 841.192 212.46 838.239C213.965 835.287 212.791 831.674 209.838 830.169L161.724 805.654ZM297.584 1218.1L164.706 809.146L153.294 812.854L286.171 1221.81L297.584 1218.1Z" fill="#A398F0"/>
<path d="M965.527 222.146C962.846 220.198 959.094 220.792 957.146 223.473C955.198 226.154 955.792 229.906 958.473 231.854L965.527 222.146ZM1310.82 485.674C1314.09 485.155 1316.32 482.082 1315.8 478.809L1307.36 425.474C1306.84 422.201 1303.76 419.968 1300.49 420.486C1297.22 421.005 1294.99 424.078 1295.5 427.351L1303.01 474.76L1255.6 482.269C1252.33 482.787 1250.1 485.861 1250.62 489.134C1251.13 492.407 1254.21 494.64 1257.48 494.121L1310.82 485.674ZM958.473 231.854L1306.35 484.602L1313.4 474.894L965.527 222.146L958.473 231.854Z" fill="#A398F0"/>
<!-- <path d="M884.243 1796.24C886.586 1793.9 886.586 1790.1 884.243 1787.76L846.059 1749.57C843.716 1747.23 839.917 1747.23 837.574 1749.57C835.23 1751.92 835.23 1755.72 837.574 1758.06L871.515 1792L837.574 1825.94C835.23 1828.28 835.23 1832.08 837.574 1834.43C839.917 1836.77 843.716 1836.77 846.059 1834.43L884.243 1796.24ZM694 1798H880V1786H694V1798Z" fill="#A398F0"/> -->
<!-- <path d="M643.892 1702.18C643.892 1706.94 642.99 1710.99 641.186 1714.33C639.396 1717.66 636.953 1720.21 633.857 1721.98C630.774 1723.72 627.308 1724.6 623.459 1724.6C619.581 1724.6 616.101 1723.72 613.018 1721.95C609.936 1720.19 607.5 1717.64 605.71 1714.31C603.92 1710.97 603.026 1706.93 603.026 1702.18C603.026 1697.42 603.92 1693.38 605.71 1690.04C607.5 1686.7 609.936 1684.16 613.018 1682.41C616.101 1680.65 619.581 1679.77 623.459 1679.77C627.308 1679.77 630.774 1680.65 633.857 1682.41C636.953 1684.16 639.396 1686.7 641.186 1690.04C642.99 1693.38 643.892 1697.42 643.892 1702.18ZM634.538 1702.18C634.538 1699.1 634.077 1696.5 633.153 1694.38C632.244 1692.27 630.959 1690.66 629.297 1689.57C627.635 1688.47 625.689 1687.93 623.459 1687.93C621.229 1687.93 619.283 1688.47 617.621 1689.57C615.959 1690.66 614.666 1692.27 613.743 1694.38C612.834 1696.5 612.379 1699.1 612.379 1702.18C612.379 1705.26 612.834 1707.86 613.743 1709.98C614.666 1712.1 615.959 1713.7 617.621 1714.8C619.283 1715.89 621.229 1716.44 623.459 1716.44C625.689 1716.44 627.635 1715.89 629.297 1714.8C630.959 1713.7 632.244 1712.1 633.153 1709.98C634.077 1707.86 634.538 1705.26 634.538 1702.18ZM650.556 1736.27V1691.27H659.505V1696.77H659.909C660.307 1695.89 660.882 1694.99 661.635 1694.09C662.402 1693.16 663.397 1692.39 664.618 1691.78C665.854 1691.16 667.388 1690.85 669.221 1690.85C671.607 1690.85 673.809 1691.47 675.826 1692.72C677.843 1693.96 679.455 1695.83 680.662 1698.33C681.87 1700.81 682.473 1703.93 682.473 1707.68C682.473 1711.33 681.884 1714.41 680.705 1716.93C679.54 1719.43 677.949 1721.32 675.932 1722.62C673.929 1723.89 671.685 1724.53 669.199 1724.53C667.438 1724.53 665.939 1724.24 664.703 1723.66C663.482 1723.08 662.48 1722.35 661.699 1721.46C660.918 1720.57 660.321 1719.67 659.909 1718.76H659.632V1736.27H650.556ZM659.441 1707.64C659.441 1709.58 659.711 1711.28 660.25 1712.73C660.79 1714.18 661.571 1715.31 662.594 1716.12C663.617 1716.91 664.86 1717.31 666.323 1717.31C667.8 1717.31 669.05 1716.9 670.073 1716.1C671.096 1715.27 671.87 1714.13 672.395 1712.69C672.935 1711.22 673.205 1709.54 673.205 1707.64C673.205 1705.75 672.942 1704.09 672.417 1702.65C671.891 1701.22 671.117 1700.09 670.094 1699.28C669.071 1698.47 667.814 1698.07 666.323 1698.07C664.846 1698.07 663.596 1698.46 662.573 1699.24C661.564 1700.02 660.79 1701.13 660.25 1702.57C659.711 1704 659.441 1705.69 659.441 1707.64ZM705.932 1691.27V1698.09H686.223V1691.27H705.932ZM690.698 1683.43H699.775V1713.94C699.775 1714.78 699.902 1715.43 700.158 1715.9C700.414 1716.36 700.769 1716.68 701.223 1716.86C701.692 1717.05 702.232 1717.14 702.843 1717.14C703.269 1717.14 703.695 1717.1 704.121 1717.03C704.547 1716.95 704.874 1716.88 705.101 1716.84L706.529 1723.6C706.074 1723.74 705.435 1723.9 704.611 1724.09C703.787 1724.28 702.786 1724.4 701.607 1724.45C699.419 1724.53 697.502 1724.24 695.854 1723.57C694.221 1722.91 692.949 1721.87 692.04 1720.46C691.131 1719.06 690.684 1717.28 690.698 1715.14V1683.43ZM711.845 1724V1691.27H720.922V1724H711.845ZM716.404 1687.05C715.055 1687.05 713.897 1686.61 712.931 1685.71C711.98 1684.8 711.504 1683.72 711.504 1682.45C711.504 1681.2 711.98 1680.13 712.931 1679.23C713.897 1678.33 715.055 1677.87 716.404 1677.87C717.754 1677.87 718.904 1678.33 719.856 1679.23C720.822 1680.13 721.305 1681.2 721.305 1682.45C721.305 1683.72 720.822 1684.8 719.856 1685.71C718.904 1686.61 717.754 1687.05 716.404 1687.05ZM728.192 1724V1691.27H736.843V1697.05H737.227C737.908 1695.13 739.045 1693.62 740.636 1692.51C742.227 1691.4 744.13 1690.85 746.346 1690.85C748.59 1690.85 750.501 1691.41 752.077 1692.53C753.654 1693.64 754.705 1695.14 755.231 1697.05H755.572C756.239 1695.17 757.447 1693.67 759.194 1692.55C760.955 1691.41 763.036 1690.85 765.437 1690.85C768.491 1690.85 770.969 1691.82 772.873 1693.77C774.79 1695.7 775.749 1698.44 775.749 1701.99V1724H766.694V1703.78C766.694 1701.96 766.211 1700.6 765.245 1699.69C764.279 1698.78 763.072 1698.33 761.623 1698.33C759.975 1698.33 758.69 1698.85 757.766 1699.9C756.843 1700.94 756.381 1702.31 756.381 1704.01V1724H747.582V1703.59C747.582 1701.98 747.12 1700.7 746.197 1699.75C745.288 1698.8 744.087 1698.33 742.596 1698.33C741.587 1698.33 740.678 1698.58 739.869 1699.09C739.073 1699.59 738.441 1700.29 737.972 1701.2C737.504 1702.1 737.269 1703.15 737.269 1704.36V1724H728.192ZM792.251 1724.62C790.163 1724.62 788.303 1724.26 786.669 1723.53C785.036 1722.79 783.743 1721.71 782.791 1720.27C781.854 1718.82 781.385 1717.02 781.385 1714.86C781.385 1713.04 781.719 1711.51 782.386 1710.28C783.054 1709.04 783.963 1708.05 785.114 1707.3C786.264 1706.54 787.571 1705.97 789.034 1705.59C790.511 1705.21 792.06 1704.94 793.679 1704.78C795.582 1704.58 797.116 1704.4 798.281 1704.23C799.446 1704.04 800.291 1703.77 800.817 1703.42C801.342 1703.06 801.605 1702.54 801.605 1701.84V1701.71C801.605 1700.36 801.179 1699.32 800.327 1698.58C799.489 1697.84 798.295 1697.47 796.747 1697.47C795.114 1697.47 793.814 1697.84 792.848 1698.56C791.882 1699.27 791.243 1700.16 790.93 1701.24L782.536 1700.56C782.962 1698.57 783.8 1696.86 785.05 1695.41C786.3 1693.94 787.912 1692.82 789.886 1692.04C791.875 1691.24 794.176 1690.85 796.79 1690.85C798.608 1690.85 800.348 1691.06 802.01 1691.49C803.686 1691.91 805.17 1692.57 806.463 1693.47C807.77 1694.36 808.8 1695.51 809.553 1696.92C810.305 1698.31 810.682 1699.98 810.682 1701.93V1724H802.074V1719.46H801.818C801.293 1720.48 800.589 1721.39 799.709 1722.17C798.828 1722.93 797.77 1723.54 796.534 1723.98C795.298 1724.4 793.871 1724.62 792.251 1724.62ZM794.851 1718.35C796.186 1718.35 797.365 1718.09 798.388 1717.57C799.411 1717.03 800.213 1716.3 800.795 1715.39C801.378 1714.48 801.669 1713.45 801.669 1712.3V1708.83C801.385 1709.01 800.994 1709.18 800.497 1709.34C800.014 1709.48 799.467 1709.62 798.857 1709.75C798.246 1709.86 797.635 1709.97 797.024 1710.07C796.413 1710.15 795.859 1710.23 795.362 1710.3C794.297 1710.46 793.366 1710.7 792.571 1711.05C791.776 1711.39 791.158 1711.85 790.717 1712.43C790.277 1713 790.057 1713.71 790.057 1714.56C790.057 1715.8 790.504 1716.74 791.399 1717.39C792.308 1718.03 793.459 1718.35 794.851 1718.35ZM826.8 1680.36V1724H817.724V1680.36H826.8ZM848.129 1724V1680.36H865.344C868.654 1680.36 871.474 1681 873.803 1682.26C876.133 1683.51 877.908 1685.25 879.13 1687.48C880.366 1689.7 880.984 1692.25 880.984 1695.15C880.984 1698.05 880.359 1700.61 879.109 1702.82C877.859 1705.04 876.048 1706.76 873.675 1708C871.317 1709.23 868.462 1709.85 865.11 1709.85H854.137V1702.46H863.619C865.394 1702.46 866.857 1702.15 868.008 1701.54C869.173 1700.92 870.039 1700.06 870.607 1698.96C871.19 1697.86 871.481 1696.59 871.481 1695.15C871.481 1693.7 871.19 1692.44 870.607 1691.36C870.039 1690.26 869.173 1689.42 868.008 1688.82C866.843 1688.21 865.366 1687.91 863.576 1687.91H857.354V1724H848.129ZM895.259 1724.62C893.171 1724.62 891.31 1724.26 889.677 1723.53C888.043 1722.79 886.751 1721.71 885.799 1720.27C884.862 1718.82 884.393 1717.02 884.393 1714.86C884.393 1713.04 884.727 1711.51 885.394 1710.28C886.062 1709.04 886.971 1708.05 888.121 1707.3C889.272 1706.54 890.579 1705.97 892.042 1705.59C893.519 1705.21 895.067 1704.94 896.687 1704.78C898.59 1704.58 900.124 1704.4 901.289 1704.23C902.454 1704.04 903.299 1703.77 903.825 1703.42C904.35 1703.06 904.613 1702.54 904.613 1701.84V1701.71C904.613 1700.36 904.187 1699.32 903.335 1698.58C902.496 1697.84 901.303 1697.47 899.755 1697.47C898.121 1697.47 896.822 1697.84 895.856 1698.56C894.89 1699.27 894.251 1700.16 893.938 1701.24L885.543 1700.56C885.969 1698.57 886.808 1696.86 888.058 1695.41C889.308 1693.94 890.92 1692.82 892.894 1692.04C894.883 1691.24 897.184 1690.85 899.798 1690.85C901.616 1690.85 903.356 1691.06 905.018 1691.49C906.694 1691.91 908.178 1692.57 909.471 1693.47C910.778 1694.36 911.808 1695.51 912.56 1696.92C913.313 1698.31 913.69 1699.98 913.69 1701.93V1724H905.082V1719.46H904.826C904.3 1720.48 903.597 1721.39 902.717 1722.17C901.836 1722.93 900.778 1723.54 899.542 1723.98C898.306 1724.4 896.879 1724.62 895.259 1724.62ZM897.859 1718.35C899.194 1718.35 900.373 1718.09 901.396 1717.57C902.418 1717.03 903.221 1716.3 903.803 1715.39C904.386 1714.48 904.677 1713.45 904.677 1712.3V1708.83C904.393 1709.01 904.002 1709.18 903.505 1709.34C903.022 1709.48 902.475 1709.62 901.864 1709.75C901.254 1709.86 900.643 1709.97 900.032 1710.07C899.421 1710.15 898.867 1710.23 898.37 1710.3C897.305 1710.46 896.374 1710.7 895.579 1711.05C894.783 1711.39 894.165 1711.85 893.725 1712.43C893.285 1713 893.065 1713.71 893.065 1714.56C893.065 1715.8 893.512 1716.74 894.407 1717.39C895.316 1718.03 896.467 1718.35 897.859 1718.35ZM938.139 1691.27V1698.09H918.43V1691.27H938.139ZM922.905 1683.43H931.982V1713.94C931.982 1714.78 932.109 1715.43 932.365 1715.9C932.621 1716.36 932.976 1716.68 933.43 1716.86C933.899 1717.05 934.439 1717.14 935.05 1717.14C935.476 1717.14 935.902 1717.1 936.328 1717.03C936.754 1716.95 937.081 1716.88 937.308 1716.84L938.736 1723.6C938.281 1723.74 937.642 1723.9 936.818 1724.09C935.994 1724.28 934.993 1724.4 933.814 1724.45C931.626 1724.53 929.709 1724.24 928.061 1723.57C926.428 1722.91 925.156 1721.87 924.247 1720.46C923.338 1719.06 922.891 1717.28 922.905 1715.14V1683.43ZM953.832 1705.08V1724H944.755V1680.36H953.576V1697.05H953.96C954.698 1695.12 955.891 1693.6 957.539 1692.51C959.187 1691.4 961.254 1690.85 963.739 1690.85C966.012 1690.85 967.994 1691.34 969.684 1692.34C971.388 1693.32 972.71 1694.73 973.647 1696.58C974.599 1698.41 975.067 1700.61 975.053 1703.16V1724H965.977V1704.78C965.991 1702.76 965.479 1701.19 964.442 1700.07C963.42 1698.95 961.985 1698.39 960.138 1698.39C958.903 1698.39 957.809 1698.65 956.857 1699.18C955.92 1699.7 955.181 1700.47 954.641 1701.48C954.116 1702.47 953.846 1703.67 953.832 1705.08Z" fill="#A398F0"/> -->
</svg>
