<svg width="1576" height="1800" viewBox="0 0 1576 1800" fill="none" xmlns="http://www.w3.org/2000/svg">
<path d="M1517.58 520.472C1508.93 511.139 1496.84 506 1483.5 506C1470.09 506 1457.96 511.108 1449.35 520.383C1440.64 529.76 1436.4 542.504 1437.39 556.265C1439.37 583.414 1460.05 605.499 1483.5 605.499C1506.95 605.499 1527.6 583.419 1529.6 556.274C1530.61 542.637 1526.34 529.92 1517.58 520.472ZM1561.77 704.999H1405.23C1403.18 705.025 1401.15 704.596 1399.29 703.74C1397.43 702.885 1395.78 701.626 1394.47 700.055C1391.58 696.604 1390.42 691.891 1391.28 687.124C1395.03 666.327 1406.74 648.857 1425.16 636.593C1441.51 625.706 1462.23 619.714 1483.5 619.714C1504.77 619.714 1525.49 625.71 1541.84 636.593C1560.26 648.853 1571.97 666.323 1575.72 687.12C1576.58 691.886 1575.42 696.599 1572.53 700.05C1571.22 701.622 1569.57 702.882 1567.71 703.738C1565.85 704.594 1563.82 705.025 1561.77 704.999Z" fill="#A398F0"/>
<path d="M822.582 14.4718C813.928 5.13932 801.841 0 788.5 0C775.088 0 762.961 5.10823 754.347 14.383C745.64 23.7599 741.397 36.5038 742.394 50.265C744.368 77.4141 765.051 99.4994 788.5 99.4994C811.949 99.4994 832.596 77.4185 834.602 50.2739C835.611 36.6371 831.342 23.9198 822.582 14.4718ZM866.767 198.999H710.233C708.184 199.025 706.155 198.596 704.293 197.74C702.432 196.885 700.784 195.626 699.471 194.055C696.581 190.604 695.416 185.891 696.278 181.124C700.032 160.327 711.745 142.857 730.155 130.593C746.511 119.706 767.23 113.714 788.5 113.714C809.77 113.714 830.489 119.71 846.845 130.593C865.255 142.853 876.968 160.323 880.722 181.12C881.584 185.886 880.419 190.599 877.529 194.05C876.216 195.622 874.569 196.882 872.707 197.738C870.846 198.594 868.816 199.025 866.767 198.999Z" fill="#A398F0"/>
<path d="M126.582 520.472C117.928 511.139 105.841 506 92.5 506C79.0879 506 66.9609 511.108 58.3471 520.383C49.6399 529.76 45.3975 542.504 46.3936 556.265C48.368 583.414 69.051 605.499 92.5 605.499C115.949 605.499 136.596 583.419 138.602 556.274C139.611 542.637 135.342 529.92 126.582 520.472ZM170.767 704.999H14.2329C12.184 705.025 10.155 704.596 8.29336 703.74C6.43175 702.885 4.78441 701.626 3.4712 700.055C0.580657 696.604 -0.584456 691.891 0.278261 687.124C4.03152 666.327 15.7449 648.857 34.1555 636.593C50.5115 625.706 71.23 619.714 92.5 619.714C113.77 619.714 134.489 625.71 150.845 636.593C169.255 648.853 180.968 666.323 184.722 687.12C185.584 691.886 184.419 696.599 181.529 700.05C180.216 701.622 178.569 702.882 176.707 703.738C174.846 704.594 172.816 705.025 170.767 704.999Z" fill="#A398F0"/>
<path d="M393.582 1312.47C384.928 1303.14 372.841 1298 359.5 1298C346.088 1298 333.961 1303.11 325.347 1312.38C316.64 1321.76 312.397 1334.5 313.394 1348.26C315.368 1375.41 336.051 1397.5 359.5 1397.5C382.949 1397.5 403.596 1375.42 405.602 1348.27C406.611 1334.64 402.342 1321.92 393.582 1312.47ZM437.767 1497H281.233C279.184 1497.03 277.155 1496.6 275.293 1495.74C273.432 1494.89 271.784 1493.63 270.471 1492.05C267.581 1488.6 266.416 1483.89 267.278 1479.12C271.032 1458.33 282.745 1440.86 301.155 1428.59C317.511 1417.71 338.23 1411.71 359.5 1411.71C380.77 1411.71 401.489 1417.71 417.845 1428.59C436.255 1440.85 447.968 1458.32 451.722 1479.12C452.584 1483.89 451.419 1488.6 448.529 1492.05C447.216 1493.62 445.569 1494.88 443.707 1495.74C441.846 1496.59 439.816 1497.02 437.767 1497Z" fill="#A398F0"/>
<path d="M1252.58 1312.47C1243.93 1303.14 1231.84 1298 1218.5 1298C1205.09 1298 1192.96 1303.11 1184.35 1312.38C1175.64 1321.76 1171.4 1334.5 1172.39 1348.26C1174.37 1375.41 1195.05 1397.5 1218.5 1397.5C1241.95 1397.5 1262.6 1375.42 1264.6 1348.27C1265.61 1334.64 1261.34 1321.92 1252.58 1312.47ZM1296.77 1497H1140.23C1138.18 1497.03 1136.15 1496.6 1134.29 1495.74C1132.43 1494.89 1130.78 1493.63 1129.47 1492.05C1126.58 1488.6 1125.42 1483.89 1126.28 1479.12C1130.03 1458.33 1141.74 1440.86 1160.16 1428.59C1176.51 1417.71 1197.23 1411.71 1218.5 1411.71C1239.77 1411.71 1260.49 1417.71 1276.84 1428.59C1295.26 1440.85 1306.97 1458.32 1310.72 1479.12C1311.58 1483.89 1310.42 1488.6 1307.53 1492.05C1306.22 1493.62 1304.57 1494.88 1302.71 1495.74C1300.85 1496.59 1298.82 1497.02 1296.77 1497Z" fill="#A398F0"/>
<path d="M1424.58 812.854C1425.61 809.703 1423.88 806.318 1420.73 805.294C1417.58 804.27 1414.19 805.994 1413.17 809.146L1424.58 812.854ZM1280.65 1222.68C1282.16 1225.63 1285.77 1226.8 1288.72 1225.3L1336.84 1200.78C1339.79 1199.28 1340.96 1195.67 1339.46 1192.71C1337.96 1189.76 1334.34 1188.59 1331.39 1190.09L1288.62 1211.88L1266.83 1169.12C1265.33 1166.16 1261.71 1164.99 1258.76 1166.49C1255.81 1168 1254.63 1171.61 1256.14 1174.56L1280.65 1222.68ZM1413.17 809.146L1280.29 1218.1L1291.71 1221.81L1424.58 812.854L1413.17 809.146Z" fill="#480F6C"/>
<path d="M1004 1430C1007.31 1430 1010 1427.31 1010 1424C1010 1420.69 1007.31 1418 1004 1418V1430ZM569.757 1419.76C567.414 1422.1 567.414 1425.9 569.757 1428.24L607.941 1466.43C610.284 1468.77 614.083 1468.77 616.426 1466.43C618.77 1464.08 618.77 1460.28 616.426 1457.94L582.485 1424L616.426 1390.06C618.77 1387.72 618.77 1383.92 616.426 1381.57C614.083 1379.23 610.284 1379.23 607.941 1381.57L569.757 1419.76ZM1004 1418H574V1430H1004V1418Z" fill="#A398F0"/>
<path d="M460 1749C456.686 1749 454 1751.69 454 1755C454 1758.31 456.686 1761 460 1761V1749ZM604.243 1759.24C606.586 1756.9 606.586 1753.1 604.243 1750.76L566.059 1712.57C563.716 1710.23 559.917 1710.23 557.574 1712.57C555.23 1714.92 555.23 1718.72 557.574 1721.06L591.515 1755L557.574 1788.94C555.23 1791.28 555.23 1795.08 557.574 1797.43C559.917 1799.77 563.716 1799.77 566.059 1797.43L604.243 1759.24ZM460 1761H600V1749H460V1761Z" fill="#A398F0"/>
<path d="M994 1749C990.686 1749 988 1751.69 988 1755C988 1758.31 990.686 1761 994 1761V1749ZM1138.24 1759.24C1140.59 1756.9 1140.59 1753.1 1138.24 1750.76L1100.06 1712.57C1097.72 1710.23 1093.92 1710.23 1091.57 1712.57C1089.23 1714.92 1089.23 1718.72 1091.57 1721.06L1125.51 1755L1091.57 1788.94C1089.23 1791.28 1089.23 1795.08 1091.57 1797.43C1093.92 1799.77 1097.72 1799.77 1100.06 1797.43L1138.24 1759.24ZM994 1761H1134V1749H994V1761Z" fill="#480F6C"/>
<path d="M262.473 474.893C259.792 476.841 259.198 480.593 261.146 483.274C263.094 485.955 266.846 486.549 269.527 484.602L262.473 474.893ZM619.803 227.938C620.322 224.666 618.089 221.592 614.816 221.074L561.481 212.626C558.208 212.108 555.134 214.341 554.616 217.614C554.098 220.887 556.331 223.96 559.604 224.479L607.013 231.987L599.504 279.396C598.985 282.669 601.218 285.743 604.491 286.261C607.764 286.78 610.838 284.547 611.356 281.274L619.803 227.938ZM269.527 484.602L617.404 231.854L610.351 222.146L262.473 474.893L269.527 484.602Z" fill="#A398F0"/>
<path d="M854.685 273.081C853.625 269.941 850.22 268.255 847.081 269.315C843.941 270.375 842.255 273.78 843.315 276.919L854.685 273.081ZM1160.34 1210.38C1163.31 1211.85 1166.91 1210.63 1168.38 1207.66L1192.34 1159.27C1193.81 1156.3 1192.59 1152.7 1189.63 1151.23C1186.66 1149.76 1183.06 1150.98 1181.59 1153.95L1160.29 1196.96L1117.27 1175.66C1114.3 1174.19 1110.7 1175.41 1109.23 1178.37C1107.76 1181.34 1108.98 1184.94 1111.95 1186.41L1160.34 1210.38ZM843.315 276.919L1157.32 1206.92L1168.68 1203.08L854.685 273.081L843.315 276.919Z" fill="#A398F0"/>
<path d="M419.175 1235.71C416.251 1237.27 415.146 1240.9 416.707 1243.83C418.267 1246.75 421.902 1247.85 424.825 1246.29L419.175 1235.71ZM1315.74 768.745C1316.7 765.574 1314.92 762.223 1311.74 761.259L1260.08 745.555C1256.91 744.591 1253.56 746.38 1252.59 749.55C1251.63 752.721 1253.42 756.072 1256.59 757.036L1302.51 770.996L1288.55 816.921C1287.59 820.091 1289.38 823.443 1292.55 824.407C1295.72 825.37 1299.07 823.581 1300.04 820.411L1315.74 768.745ZM424.825 1246.29L1312.83 772.293L1307.17 761.707L419.175 1235.71L424.825 1246.29Z" fill="#A398F0"/>
<path d="M1072.89 1262.13C1075.72 1263.85 1079.41 1262.94 1081.13 1260.11C1082.85 1257.28 1081.94 1253.59 1079.11 1251.87L1072.89 1262.13ZM338.57 805.173C335.352 805.962 333.383 809.211 334.173 812.43L347.04 864.874C347.83 868.093 351.079 870.061 354.297 869.272C357.515 868.482 359.484 865.233 358.694 862.015L347.257 815.398L393.874 803.96C397.093 803.17 399.061 799.921 398.272 796.703C397.482 793.485 394.233 791.516 391.015 792.306L338.57 805.173ZM1079.11 1251.87L343.11 805.869L336.891 816.131L1072.89 1262.13L1079.11 1251.87Z" fill="#480F6C"/>
<path d="M291 680C287.686 680 285 682.686 285 686C285 689.314 287.686 692 291 692V680ZM1314.24 690.243C1316.59 687.899 1316.59 684.101 1314.24 681.757L1276.06 643.574C1273.72 641.23 1269.92 641.23 1267.57 643.574C1265.23 645.917 1265.23 649.716 1267.57 652.059L1301.51 686L1267.57 719.941C1265.23 722.284 1265.23 726.083 1267.57 728.426C1269.92 730.77 1273.72 730.77 1276.06 728.426L1314.24 690.243ZM291 692H1310V680H291V692Z" fill="#480F6C"/>
<path d="M1285 611C1288.31 611 1291 608.314 1291 605C1291 601.686 1288.31 599 1285 599V611ZM261.757 600.757C259.414 603.101 259.414 606.899 261.757 609.243L299.941 647.426C302.284 649.77 306.083 649.77 308.426 647.426C310.77 645.083 310.77 641.284 308.426 638.941L274.485 605L308.426 571.059C310.77 568.716 310.77 564.917 308.426 562.574C306.083 560.23 302.284 560.23 299.941 562.574L261.757 600.757ZM1285 599L266 599V611L1285 611V599Z" fill="#A398F0"/>
<path d="M286.171 1221.81C287.195 1224.96 290.58 1226.68 293.731 1225.66C296.883 1224.64 298.608 1221.25 297.584 1218.1L286.171 1221.81ZM161.724 805.654C158.771 804.149 155.158 805.323 153.654 808.276L129.138 856.39C127.634 859.343 128.808 862.956 131.761 864.46C134.713 865.965 138.326 864.791 139.831 861.838L161.622 819.07L204.39 840.861C207.343 842.366 210.956 841.192 212.46 838.239C213.965 835.287 212.791 831.674 209.838 830.169L161.724 805.654ZM297.584 1218.1L164.706 809.146L153.294 812.854L286.171 1221.81L297.584 1218.1Z" fill="#480F6C"/>
<path d="M965.527 222.146C962.846 220.198 959.094 220.792 957.146 223.473C955.198 226.154 955.792 229.906 958.473 231.854L965.527 222.146ZM1310.82 485.674C1314.09 485.155 1316.32 482.082 1315.8 478.809L1307.36 425.474C1306.84 422.201 1303.76 419.968 1300.49 420.486C1297.22 421.005 1294.99 424.078 1295.5 427.351L1303.01 474.76L1255.6 482.269C1252.33 482.787 1250.1 485.861 1250.62 489.134C1251.13 492.407 1254.21 494.64 1257.48 494.121L1310.82 485.674ZM958.473 231.854L1306.35 484.602L1313.4 474.894L965.527 222.146L958.473 231.854Z" fill="#480F6C"/>
<path d="M416.521 1651.36V1695H407.295V1660.12H407.04L397.047 1666.38V1658.2L407.849 1651.36H416.521ZM454.208 1671.61L445.898 1672.12C445.756 1671.41 445.451 1670.77 444.982 1670.2C444.513 1669.62 443.895 1669.15 443.128 1668.81C442.375 1668.46 441.473 1668.28 440.422 1668.28C439.016 1668.28 437.83 1668.58 436.864 1669.18C435.898 1669.76 435.415 1670.54 435.415 1671.52C435.415 1672.3 435.728 1672.96 436.353 1673.5C436.978 1674.04 438.05 1674.47 439.57 1674.8L445.493 1675.99C448.675 1676.65 451.047 1677.7 452.61 1679.15C454.172 1680.6 454.953 1682.5 454.953 1684.86C454.953 1687 454.321 1688.88 453.057 1690.5C451.807 1692.12 450.088 1693.39 447.901 1694.3C445.728 1695.19 443.221 1695.64 440.38 1695.64C436.047 1695.64 432.596 1694.74 430.025 1692.93C427.468 1691.12 425.969 1688.64 425.529 1685.52L434.456 1685.05C434.726 1686.37 435.38 1687.38 436.417 1688.08C437.453 1688.76 438.782 1689.1 440.401 1689.1C441.992 1689.1 443.27 1688.79 444.236 1688.18C445.216 1687.56 445.713 1686.75 445.728 1685.77C445.713 1684.95 445.365 1684.28 444.684 1683.75C444.002 1683.21 442.951 1682.8 441.53 1682.51L435.863 1681.38C432.667 1680.75 430.287 1679.64 428.725 1678.06C427.176 1676.48 426.402 1674.47 426.402 1672.03C426.402 1669.93 426.971 1668.12 428.107 1666.6C429.257 1665.08 430.87 1663.91 432.944 1663.08C435.032 1662.26 437.475 1661.85 440.273 1661.85C444.407 1661.85 447.659 1662.72 450.032 1664.47C452.418 1666.21 453.81 1668.59 454.208 1671.61ZM478.077 1662.27V1669.09H458.368V1662.27H478.077ZM462.842 1654.43H471.919V1684.94C471.919 1685.78 472.047 1686.43 472.303 1686.9C472.558 1687.36 472.913 1687.68 473.368 1687.86C473.837 1688.05 474.376 1688.14 474.987 1688.14C475.413 1688.14 475.839 1688.1 476.266 1688.03C476.692 1687.95 477.018 1687.88 477.246 1687.84L478.673 1694.6C478.219 1694.74 477.58 1694.9 476.756 1695.09C475.932 1695.28 474.93 1695.4 473.751 1695.45C471.564 1695.53 469.646 1695.24 467.999 1694.57C466.365 1693.91 465.094 1692.87 464.185 1691.46C463.276 1690.06 462.828 1688.28 462.842 1686.14V1654.43ZM536.548 1666.64H527.216C527.045 1665.43 526.697 1664.36 526.172 1663.42C525.646 1662.47 524.971 1661.66 524.147 1660.99C523.324 1660.33 522.372 1659.82 521.292 1659.46C520.227 1659.11 519.069 1658.93 517.819 1658.93C515.561 1658.93 513.593 1659.49 511.917 1660.61C510.241 1661.72 508.941 1663.34 508.018 1665.47C507.095 1667.59 506.633 1670.16 506.633 1673.18C506.633 1676.29 507.095 1678.91 508.018 1681.02C508.956 1683.14 510.262 1684.74 511.939 1685.82C513.615 1686.9 515.554 1687.44 517.755 1687.44C518.991 1687.44 520.135 1687.27 521.186 1686.95C522.251 1686.62 523.196 1686.14 524.02 1685.52C524.843 1684.88 525.525 1684.11 526.065 1683.2C526.619 1682.29 527.002 1681.25 527.216 1680.09L536.548 1680.13C536.306 1682.13 535.703 1684.06 534.737 1685.92C533.785 1687.77 532.5 1689.42 530.88 1690.89C529.275 1692.34 527.358 1693.49 525.127 1694.34C522.912 1695.18 520.404 1695.6 517.606 1695.6C513.714 1695.6 510.234 1694.72 507.166 1692.95C504.112 1691.19 501.697 1688.64 499.922 1685.31C498.16 1681.97 497.279 1677.93 497.279 1673.18C497.279 1668.42 498.174 1664.38 499.964 1661.04C501.754 1657.7 504.183 1655.16 507.251 1653.41C510.319 1651.65 513.771 1650.77 517.606 1650.77C520.135 1650.77 522.478 1651.12 524.637 1651.83C526.811 1652.54 528.735 1653.58 530.412 1654.94C532.088 1656.29 533.451 1657.95 534.502 1659.91C535.568 1661.87 536.25 1664.11 536.548 1666.64ZM552.07 1676.08V1695H542.993V1651.36H551.814V1668.05H552.198C552.936 1666.12 554.13 1664.6 555.777 1663.51C557.425 1662.4 559.492 1661.85 561.978 1661.85C564.25 1661.85 566.232 1662.34 567.922 1663.34C569.627 1664.32 570.948 1665.73 571.885 1667.58C572.837 1669.41 573.306 1671.61 573.292 1674.16V1695H564.215V1675.78C564.229 1673.76 563.718 1672.19 562.681 1671.07C561.658 1669.95 560.223 1669.39 558.377 1669.39C557.141 1669.39 556.047 1669.65 555.096 1670.18C554.158 1670.7 553.419 1671.47 552.88 1672.48C552.354 1673.47 552.084 1674.67 552.07 1676.08ZM595.222 1695.64C591.912 1695.64 589.05 1694.94 586.635 1693.53C584.234 1692.11 582.381 1690.13 581.074 1687.61C579.767 1685.06 579.114 1682.12 579.114 1678.76C579.114 1675.38 579.767 1672.43 581.074 1669.9C582.381 1667.36 584.234 1665.38 586.635 1663.98C589.05 1662.56 591.912 1661.85 595.222 1661.85C598.531 1661.85 601.386 1662.56 603.787 1663.98C606.202 1665.38 608.062 1667.36 609.369 1669.9C610.676 1672.43 611.33 1675.38 611.33 1678.76C611.33 1682.12 610.676 1685.06 609.369 1687.61C608.062 1690.13 606.202 1692.11 603.787 1693.53C601.386 1694.94 598.531 1695.64 595.222 1695.64ZM595.264 1688.61C596.77 1688.61 598.027 1688.18 599.036 1687.33C600.044 1686.46 600.804 1685.28 601.315 1683.79C601.841 1682.3 602.104 1680.6 602.104 1678.7C602.104 1676.8 601.841 1675.1 601.315 1673.61C600.804 1672.12 600.044 1670.94 599.036 1670.07C598.027 1669.2 596.77 1668.77 595.264 1668.77C593.744 1668.77 592.466 1669.2 591.429 1670.07C590.406 1670.94 589.632 1672.12 589.107 1673.61C588.595 1675.1 588.339 1676.8 588.339 1678.7C588.339 1680.6 588.595 1682.3 589.107 1683.79C589.632 1685.28 590.406 1686.46 591.429 1687.33C592.466 1688.18 593.744 1688.61 595.264 1688.61ZM617.232 1695V1662.27H626.308V1695H617.232ZM621.791 1658.05C620.442 1658.05 619.284 1657.61 618.318 1656.71C617.366 1655.8 616.891 1654.72 616.891 1653.45C616.891 1652.2 617.366 1651.13 618.318 1650.23C619.284 1649.33 620.442 1648.87 621.791 1648.87C623.141 1648.87 624.291 1649.33 625.243 1650.23C626.209 1651.13 626.692 1652.2 626.692 1653.45C626.692 1654.72 626.209 1655.8 625.243 1656.71C624.291 1657.61 623.141 1658.05 621.791 1658.05ZM648.366 1695.64C645.014 1695.64 642.13 1694.93 639.716 1693.51C637.315 1692.07 635.468 1690.09 634.176 1687.54C632.897 1685 632.258 1682.07 632.258 1678.76C632.258 1675.41 632.904 1672.47 634.197 1669.94C635.504 1667.4 637.358 1665.42 639.758 1664C642.159 1662.56 645.014 1661.85 648.324 1661.85C651.179 1661.85 653.679 1662.37 655.824 1663.4C657.968 1664.44 659.666 1665.89 660.916 1667.77C662.166 1669.64 662.855 1671.85 662.983 1674.38H654.417C654.176 1672.74 653.537 1671.43 652.5 1670.43C651.477 1669.42 650.135 1668.92 648.473 1668.92C647.066 1668.92 645.838 1669.3 644.787 1670.07C643.75 1670.82 642.94 1671.92 642.358 1673.37C641.775 1674.82 641.484 1676.58 641.484 1678.64C641.484 1680.72 641.768 1682.5 642.336 1683.96C642.919 1685.43 643.735 1686.54 644.787 1687.31C645.838 1688.08 647.066 1688.46 648.473 1688.46C649.51 1688.46 650.44 1688.25 651.264 1687.82C652.102 1687.39 652.791 1686.78 653.331 1685.97C653.885 1685.14 654.247 1684.15 654.417 1683H662.983C662.841 1685.5 662.159 1687.71 660.937 1689.61C659.73 1691.5 658.061 1692.98 655.93 1694.04C653.799 1695.11 651.278 1695.64 648.366 1695.64ZM683.709 1695.64C680.342 1695.64 677.445 1694.96 675.016 1693.59C672.601 1692.22 670.74 1690.27 669.433 1687.76C668.126 1685.23 667.473 1682.24 667.473 1678.79C667.473 1675.42 668.126 1672.46 669.433 1669.92C670.74 1667.38 672.58 1665.4 674.952 1663.98C677.338 1662.56 680.136 1661.85 683.347 1661.85C685.506 1661.85 687.516 1662.19 689.376 1662.89C691.251 1663.57 692.885 1664.6 694.277 1665.98C695.683 1667.36 696.777 1669.09 697.558 1671.18C698.339 1673.25 698.73 1675.68 698.73 1678.47V1680.96H671.095V1675.33H690.186C690.186 1674.03 689.902 1672.87 689.334 1671.86C688.766 1670.85 687.977 1670.06 686.969 1669.5C685.974 1668.91 684.817 1668.62 683.496 1668.62C682.118 1668.62 680.896 1668.94 679.831 1669.58C678.78 1670.21 677.956 1671.05 677.359 1672.12C676.763 1673.17 676.457 1674.34 676.443 1675.63V1680.98C676.443 1682.6 676.741 1684 677.338 1685.18C677.949 1686.36 678.808 1687.27 679.916 1687.9C681.024 1688.54 682.338 1688.86 683.858 1688.86C684.866 1688.86 685.79 1688.72 686.628 1688.44C687.466 1688.15 688.183 1687.73 688.78 1687.16C689.376 1686.59 689.831 1685.89 690.143 1685.07L698.538 1685.62C698.112 1687.64 697.239 1689.4 695.918 1690.91C694.611 1692.4 692.92 1693.57 690.847 1694.4C688.787 1695.23 686.408 1695.64 683.709 1695.64Z" fill="#A398F0"/>
<path d="M931.537 1680V1673.35L947.07 1658.97C948.391 1657.69 949.499 1656.54 950.393 1655.52C951.303 1654.5 951.991 1653.49 952.46 1652.51C952.929 1651.52 953.163 1650.45 953.163 1649.3C953.163 1648.02 952.872 1646.92 952.29 1645.99C951.707 1645.06 950.912 1644.34 949.903 1643.84C948.895 1643.33 947.751 1643.08 946.473 1643.08C945.138 1643.08 943.973 1643.35 942.979 1643.88C941.984 1644.42 941.217 1645.2 940.678 1646.21C940.138 1647.22 939.868 1648.42 939.868 1649.81H931.111C931.111 1646.95 931.757 1644.47 933.05 1642.37C934.342 1640.27 936.153 1638.64 938.483 1637.49C940.813 1636.34 943.497 1635.77 946.537 1635.77C949.662 1635.77 952.382 1636.32 954.697 1637.43C957.027 1638.52 958.838 1640.04 960.131 1641.99C961.423 1643.93 962.07 1646.16 962.07 1648.68C962.07 1650.33 961.743 1651.95 961.089 1653.56C960.45 1655.16 959.307 1656.95 957.659 1658.91C956.011 1660.85 953.689 1663.19 950.692 1665.92L944.321 1672.16V1672.46H962.645V1680H931.537ZM978.492 1661.08V1680H969.415V1647.27H978.066V1653.05H978.449C979.174 1651.14 980.388 1649.64 982.093 1648.53C983.797 1647.41 985.864 1646.85 988.293 1646.85C990.566 1646.85 992.547 1647.34 994.238 1648.34C995.928 1649.33 997.242 1650.75 998.179 1652.6C999.117 1654.43 999.586 1656.62 999.586 1659.16V1680H990.509V1660.78C990.523 1658.78 990.012 1657.22 988.975 1656.09C987.938 1654.96 986.51 1654.39 984.692 1654.39C983.471 1654.39 982.391 1654.65 981.453 1655.18C980.53 1655.7 979.806 1656.47 979.28 1657.48C978.769 1658.47 978.506 1659.67 978.492 1661.08ZM1018.8 1680.53C1016.31 1680.53 1014.06 1679.89 1012.04 1678.62C1010.04 1677.32 1008.45 1675.43 1007.27 1672.93C1006.11 1670.41 1005.52 1667.33 1005.52 1663.68C1005.52 1659.93 1006.13 1656.81 1007.34 1654.33C1008.54 1651.83 1010.15 1649.96 1012.15 1648.72C1014.17 1647.47 1016.38 1646.85 1018.78 1646.85C1020.61 1646.85 1022.14 1647.16 1023.36 1647.78C1024.59 1648.39 1025.59 1649.16 1026.34 1650.09C1027.11 1650.99 1027.69 1651.89 1028.09 1652.77H1028.37V1636.36H1037.42V1680H1028.47V1674.76H1028.09C1027.66 1675.67 1027.06 1676.57 1026.28 1677.46C1025.51 1678.35 1024.51 1679.08 1023.27 1679.66C1022.05 1680.24 1020.56 1680.53 1018.8 1680.53ZM1021.68 1673.31C1023.14 1673.31 1024.37 1672.91 1025.38 1672.12C1026.41 1671.31 1027.19 1670.18 1027.73 1668.73C1028.28 1667.28 1028.56 1665.58 1028.56 1663.64C1028.56 1661.69 1028.29 1660 1027.75 1658.57C1027.21 1657.13 1026.43 1656.02 1025.4 1655.24C1024.38 1654.46 1023.14 1654.07 1021.68 1654.07C1020.18 1654.07 1018.93 1654.47 1017.9 1655.28C1016.88 1656.09 1016.11 1657.22 1015.58 1658.65C1015.06 1660.09 1014.79 1661.75 1014.79 1663.64C1014.79 1665.54 1015.06 1667.22 1015.58 1668.69C1016.12 1670.13 1016.9 1671.27 1017.9 1672.1C1018.93 1672.9 1020.18 1673.31 1021.68 1673.31ZM1097.44 1651.64H1088.11C1087.94 1650.43 1087.59 1649.36 1087.07 1648.42C1086.54 1647.47 1085.87 1646.66 1085.04 1645.99C1084.22 1645.33 1083.27 1644.82 1082.19 1644.46C1081.12 1644.11 1079.96 1643.93 1078.71 1643.93C1076.46 1643.93 1074.49 1644.49 1072.81 1645.61C1071.14 1646.72 1069.84 1648.34 1068.91 1650.47C1067.99 1652.59 1067.53 1655.16 1067.53 1658.18C1067.53 1661.29 1067.99 1663.91 1068.91 1666.02C1069.85 1668.14 1071.16 1669.74 1072.83 1670.82C1074.51 1671.9 1076.45 1672.44 1078.65 1672.44C1079.89 1672.44 1081.03 1672.27 1082.08 1671.95C1083.15 1671.62 1084.09 1671.14 1084.91 1670.52C1085.74 1669.88 1086.42 1669.11 1086.96 1668.2C1087.51 1667.29 1087.9 1666.25 1088.11 1665.09L1097.44 1665.13C1097.2 1667.13 1096.6 1669.06 1095.63 1670.92C1094.68 1672.77 1093.39 1674.42 1091.77 1675.89C1090.17 1677.34 1088.25 1678.49 1086.02 1679.34C1083.81 1680.18 1081.3 1680.6 1078.5 1680.6C1074.61 1680.6 1071.13 1679.72 1068.06 1677.95C1065.01 1676.19 1062.59 1673.64 1060.82 1670.31C1059.05 1666.97 1058.17 1662.93 1058.17 1658.18C1058.17 1653.42 1059.07 1649.38 1060.86 1646.04C1062.65 1642.7 1065.08 1640.16 1068.15 1638.41C1071.21 1636.65 1074.67 1635.77 1078.5 1635.77C1081.03 1635.77 1083.37 1636.12 1085.53 1636.83C1087.71 1637.54 1089.63 1638.58 1091.31 1639.94C1092.98 1641.29 1094.35 1642.95 1095.4 1644.91C1096.46 1646.87 1097.14 1649.11 1097.44 1651.64ZM1112.96 1661.08V1680H1103.89V1636.36H1112.71V1653.05H1113.09C1113.83 1651.12 1115.02 1649.6 1116.67 1648.51C1118.32 1647.4 1120.39 1646.85 1122.87 1646.85C1125.14 1646.85 1127.13 1647.34 1128.82 1648.34C1130.52 1649.32 1131.84 1650.73 1132.78 1652.58C1133.73 1654.41 1134.2 1656.61 1134.19 1659.16V1680H1125.11V1660.78C1125.12 1658.76 1124.61 1657.19 1123.58 1656.07C1122.55 1654.95 1121.12 1654.39 1119.27 1654.39C1118.04 1654.39 1116.94 1654.65 1115.99 1655.18C1115.05 1655.7 1114.31 1656.47 1113.77 1657.48C1113.25 1658.47 1112.98 1659.67 1112.96 1661.08ZM1156.12 1680.64C1152.81 1680.64 1149.94 1679.94 1147.53 1678.53C1145.13 1677.11 1143.28 1675.13 1141.97 1672.61C1140.66 1670.06 1140.01 1667.12 1140.01 1663.76C1140.01 1660.38 1140.66 1657.43 1141.97 1654.9C1143.28 1652.36 1145.13 1650.38 1147.53 1648.98C1149.94 1647.56 1152.81 1646.85 1156.12 1646.85C1159.43 1646.85 1162.28 1647.56 1164.68 1648.98C1167.1 1650.38 1168.96 1652.36 1170.26 1654.9C1171.57 1657.43 1172.22 1660.38 1172.22 1663.76C1172.22 1667.12 1171.57 1670.06 1170.26 1672.61C1168.96 1675.13 1167.1 1677.11 1164.68 1678.53C1162.28 1679.94 1159.43 1680.64 1156.12 1680.64ZM1156.16 1673.61C1157.66 1673.61 1158.92 1673.18 1159.93 1672.33C1160.94 1671.46 1161.7 1670.28 1162.21 1668.79C1162.74 1667.3 1163 1665.6 1163 1663.7C1163 1661.8 1162.74 1660.1 1162.21 1658.61C1161.7 1657.12 1160.94 1655.94 1159.93 1655.07C1158.92 1654.2 1157.66 1653.77 1156.16 1653.77C1154.64 1653.77 1153.36 1654.2 1152.32 1655.07C1151.3 1655.94 1150.53 1657.12 1150 1658.61C1149.49 1660.1 1149.23 1661.8 1149.23 1663.7C1149.23 1665.6 1149.49 1667.3 1150 1668.79C1150.53 1670.28 1151.3 1671.46 1152.32 1672.33C1153.36 1673.18 1154.64 1673.61 1156.16 1673.61ZM1178.13 1680V1647.27H1187.2V1680H1178.13ZM1182.69 1643.05C1181.34 1643.05 1180.18 1642.61 1179.21 1641.71C1178.26 1640.8 1177.79 1639.72 1177.79 1638.45C1177.79 1637.2 1178.26 1636.13 1179.21 1635.23C1180.18 1634.33 1181.34 1633.87 1182.69 1633.87C1184.04 1633.87 1185.19 1634.33 1186.14 1635.23C1187.1 1636.13 1187.59 1637.2 1187.59 1638.45C1187.59 1639.72 1187.1 1640.8 1186.14 1641.71C1185.19 1642.61 1184.04 1643.05 1182.69 1643.05ZM1209.26 1680.64C1205.91 1680.64 1203.02 1679.93 1200.61 1678.51C1198.21 1677.07 1196.36 1675.09 1195.07 1672.54C1193.79 1670 1193.15 1667.07 1193.15 1663.76C1193.15 1660.41 1193.8 1657.47 1195.09 1654.94C1196.4 1652.4 1198.25 1650.42 1200.65 1649C1203.05 1647.56 1205.91 1646.85 1209.22 1646.85C1212.07 1646.85 1214.57 1647.37 1216.72 1648.4C1218.86 1649.44 1220.56 1650.89 1221.81 1652.77C1223.06 1654.64 1223.75 1656.85 1223.88 1659.38H1215.31C1215.07 1657.74 1214.43 1656.43 1213.39 1655.43C1212.37 1654.42 1211.03 1653.92 1209.37 1653.92C1207.96 1653.92 1206.73 1654.3 1205.68 1655.07C1204.64 1655.82 1203.83 1656.92 1203.25 1658.37C1202.67 1659.82 1202.38 1661.58 1202.38 1663.64C1202.38 1665.72 1202.66 1667.5 1203.23 1668.96C1203.81 1670.43 1204.63 1671.54 1205.68 1672.31C1206.73 1673.08 1207.96 1673.46 1209.37 1673.46C1210.4 1673.46 1211.33 1673.25 1212.16 1672.82C1213 1672.39 1213.69 1671.78 1214.23 1670.97C1214.78 1670.14 1215.14 1669.15 1215.31 1668H1223.88C1223.74 1670.5 1223.05 1672.71 1221.83 1674.61C1220.62 1676.5 1218.96 1677.98 1216.82 1679.04C1214.69 1680.11 1212.17 1680.64 1209.26 1680.64ZM1244.6 1680.64C1241.24 1680.64 1238.34 1679.96 1235.91 1678.59C1233.5 1677.22 1231.63 1675.27 1230.33 1672.76C1229.02 1670.23 1228.37 1667.24 1228.37 1663.79C1228.37 1660.42 1229.02 1657.46 1230.33 1654.92C1231.63 1652.38 1233.47 1650.4 1235.85 1648.98C1238.23 1647.56 1241.03 1646.85 1244.24 1646.85C1246.4 1646.85 1248.41 1647.19 1250.27 1647.89C1252.15 1648.57 1253.78 1649.6 1255.17 1650.98C1256.58 1652.36 1257.67 1654.09 1258.45 1656.18C1259.23 1658.25 1259.62 1660.68 1259.62 1663.47V1665.96H1231.99V1660.33H1251.08C1251.08 1659.03 1250.8 1657.87 1250.23 1656.86C1249.66 1655.85 1248.87 1655.06 1247.86 1654.5C1246.87 1653.91 1245.71 1653.62 1244.39 1653.62C1243.01 1653.62 1241.79 1653.94 1240.73 1654.58C1239.67 1655.21 1238.85 1656.05 1238.25 1657.12C1237.66 1658.17 1237.35 1659.34 1237.34 1660.63V1665.98C1237.34 1667.6 1237.64 1669 1238.23 1670.18C1238.84 1671.36 1239.7 1672.27 1240.81 1672.9C1241.92 1673.54 1243.23 1673.86 1244.75 1673.86C1245.76 1673.86 1246.68 1673.72 1247.52 1673.44C1248.36 1673.15 1249.08 1672.73 1249.67 1672.16C1250.27 1671.59 1250.73 1670.89 1251.04 1670.07L1259.43 1670.62C1259.01 1672.64 1258.13 1674.4 1256.81 1675.91C1255.51 1677.4 1253.81 1678.57 1251.74 1679.4C1249.68 1680.23 1247.3 1680.64 1244.6 1680.64Z" fill="#480F6C"/>
</svg>
