<svg width="1578" height="1837" viewBox="0 0 1578 1837" fill="none" xmlns="http://www.w3.org/2000/svg">
<path d="M815.368 11.1244C808.673 3.95055 799.321 0 789 0C778.623 0 769.241 3.92665 762.577 11.0561C755.84 18.264 752.558 28.0602 753.329 38.6382C754.856 59.5075 770.858 76.4842 789 76.4842C807.142 76.4842 823.116 59.5109 824.668 38.645C825.449 28.1626 822.146 18.387 815.368 11.1244ZM849.553 152.968H728.447C726.862 152.989 725.292 152.658 723.852 152.001C722.411 151.344 721.137 150.376 720.121 149.168C717.885 146.515 716.983 142.892 717.651 139.229C720.554 123.242 729.617 109.813 743.86 100.386C756.515 92.0167 772.544 87.4106 789 87.4106C805.456 87.4106 821.485 92.0201 834.139 100.386C848.383 109.81 857.445 123.239 860.349 139.225C861.017 142.889 860.115 146.512 857.879 149.165C856.863 150.373 855.589 151.342 854.149 152C852.708 152.658 851.138 152.989 849.553 152.968Z" fill="white"/>
<path d="M97.3206 728.56C90.6672 721.386 81.3744 717.435 71.1173 717.435C60.8056 717.435 51.482 721.362 44.8594 728.491C38.1649 735.699 34.9032 745.495 35.6691 756.074C37.1871 776.943 53.0889 793.92 71.1173 793.92C89.1458 793.92 105.02 776.946 106.562 756.08C107.338 745.598 104.056 735.822 97.3206 728.56ZM131.292 870.404H10.9428C9.36753 870.424 7.80751 870.094 6.37624 869.436C4.94496 868.779 3.67843 867.811 2.66879 866.603C0.44643 863.95 -0.449351 860.328 0.213937 856.664C3.09958 840.677 12.1053 827.248 26.26 817.821C38.8351 809.452 54.7642 804.846 71.1173 804.846C87.4705 804.846 103.4 809.455 115.975 817.821C130.129 827.245 139.135 840.674 142.021 856.661C142.684 860.324 141.788 863.947 139.566 866.6C138.557 867.808 137.29 868.777 135.859 869.435C134.428 870.093 132.867 870.424 131.292 870.404Z" fill="white"/>
<path d="M1533.09 728.56C1526.43 721.386 1517.14 717.435 1506.88 717.435C1496.57 717.435 1487.25 721.362 1480.62 728.491C1473.93 735.699 1470.67 745.495 1471.43 756.074C1472.95 776.943 1488.85 793.92 1506.88 793.92C1524.91 793.92 1540.79 776.946 1542.33 756.08C1543.1 745.598 1539.82 735.822 1533.09 728.56ZM1567.06 870.404H1446.71C1445.13 870.424 1443.57 870.094 1442.14 869.436C1440.71 868.779 1439.44 867.811 1438.43 866.603C1436.21 863.95 1435.32 860.328 1435.98 856.664C1438.86 840.677 1447.87 827.248 1462.03 817.821C1474.6 809.452 1490.53 804.846 1506.88 804.846C1523.24 804.846 1539.16 809.455 1551.74 817.821C1565.89 827.245 1574.9 840.674 1577.79 856.661C1578.45 860.324 1577.55 863.947 1575.33 866.6C1574.32 867.808 1573.06 868.777 1571.62 869.435C1570.19 870.093 1568.63 870.424 1567.06 870.404Z" fill="white"/>
<path d="M815.368 1446.89C808.673 1439.72 799.321 1435.77 789 1435.77C778.623 1435.77 769.241 1439.69 762.577 1446.82C755.84 1454.03 752.558 1463.83 753.329 1474.4C754.856 1495.27 770.858 1512.25 789 1512.25C807.142 1512.25 823.116 1495.28 824.668 1474.41C825.449 1463.93 822.146 1454.15 815.368 1446.89ZM849.553 1588.73H728.447C726.862 1588.75 725.292 1588.42 723.852 1587.77C722.411 1587.11 721.137 1586.14 720.121 1584.93C717.885 1582.28 716.983 1578.66 717.651 1574.99C720.554 1559.01 729.617 1545.58 743.86 1536.15C756.515 1527.78 772.544 1523.18 789 1523.18C805.456 1523.18 821.485 1527.79 834.139 1536.15C848.383 1545.57 857.445 1559 860.349 1574.99C861.017 1578.65 860.115 1582.28 857.879 1584.93C856.863 1586.14 855.589 1587.11 854.149 1587.76C852.708 1588.42 851.138 1588.75 849.553 1588.73Z" fill="white"/>
<path d="M815.368 11.1244C808.673 3.95055 799.321 0 789 0C778.623 0 769.241 3.92665 762.577 11.0561C755.84 18.264 752.558 28.0602 753.329 38.6382C754.856 59.5075 770.858 76.4842 789 76.4842C807.142 76.4842 823.116 59.5109 824.668 38.645C825.449 28.1626 822.146 18.387 815.368 11.1244ZM849.553 152.968H728.447C726.862 152.989 725.292 152.658 723.852 152.001C722.411 151.344 721.137 150.376 720.121 149.168C717.885 146.515 716.983 142.892 717.651 139.229C720.554 123.242 729.617 109.813 743.86 100.386C756.515 92.0167 772.544 87.4106 789 87.4106C805.456 87.4106 821.485 92.0201 834.139 100.386C848.383 109.81 857.445 123.239 860.349 139.225C861.017 142.889 860.115 146.512 857.879 149.165C856.863 150.373 855.589 151.342 854.149 152C852.708 152.658 851.138 152.989 849.553 152.968Z" fill="#A398F0"/>
<path d="M97.3206 728.56C90.6672 721.386 81.3744 717.435 71.1173 717.435C60.8056 717.435 51.482 721.362 44.8594 728.491C38.1649 735.699 34.9032 745.495 35.6691 756.074C37.1871 776.943 53.0889 793.92 71.1173 793.92C89.1458 793.92 105.02 776.946 106.562 756.08C107.338 745.598 104.056 735.822 97.3206 728.56ZM131.292 870.404H10.9428C9.36753 870.424 7.80751 870.094 6.37624 869.436C4.94496 868.779 3.67843 867.811 2.66879 866.603C0.44643 863.95 -0.449351 860.328 0.213937 856.664C3.09958 840.677 12.1053 827.248 26.26 817.821C38.8351 809.452 54.7642 804.846 71.1173 804.846C87.4705 804.846 103.4 809.455 115.975 817.821C130.129 827.245 139.135 840.674 142.021 856.661C142.684 860.324 141.788 863.947 139.566 866.6C138.557 867.808 137.29 868.777 135.859 869.435C134.428 870.093 132.867 870.424 131.292 870.404Z" fill="#A398F0"/>
<path d="M1322.86 1236.6C1316.21 1229.47 1306.92 1225.54 1296.66 1225.54C1286.35 1225.54 1277.03 1229.45 1270.4 1236.54C1263.71 1243.7 1260.45 1253.44 1261.21 1263.96C1262.73 1284.7 1278.63 1301.58 1296.66 1301.58C1314.69 1301.58 1330.56 1284.71 1332.11 1263.96C1332.88 1253.54 1329.6 1243.82 1322.86 1236.6ZM1356.84 1377.62H1236.49C1234.91 1377.64 1233.35 1377.31 1231.92 1376.66C1230.49 1376 1229.22 1375.04 1228.21 1373.84C1225.99 1371.2 1225.09 1367.6 1225.76 1363.96C1228.64 1348.07 1237.65 1334.71 1251.8 1325.34C1264.38 1317.02 1280.31 1312.44 1296.66 1312.44C1313.01 1312.44 1328.94 1317.03 1341.52 1325.34C1355.67 1334.71 1364.68 1348.06 1367.56 1363.96C1368.23 1367.6 1367.33 1371.2 1365.11 1373.84C1364.1 1375.04 1362.83 1376 1361.4 1376.65C1359.97 1377.31 1358.41 1377.64 1356.84 1377.62Z" fill="#A398F0"/>
<path d="M307.542 1236.6C300.888 1229.47 291.596 1225.54 281.339 1225.54C271.027 1225.54 261.703 1229.45 255.081 1236.54C248.386 1243.7 245.124 1253.44 245.89 1263.96C247.408 1284.7 263.31 1301.58 281.339 1301.58C299.367 1301.58 315.241 1284.71 316.783 1263.96C317.56 1253.54 314.277 1243.82 307.542 1236.6ZM341.513 1377.62H221.164C219.589 1377.64 218.029 1377.31 216.597 1376.66C215.166 1376 213.9 1375.04 212.89 1373.84C210.668 1371.2 209.772 1367.6 210.435 1363.96C213.321 1348.07 222.326 1334.71 236.481 1325.34C249.056 1317.02 264.985 1312.44 281.339 1312.44C297.692 1312.44 313.621 1317.03 326.196 1325.34C340.351 1334.71 349.356 1348.06 352.242 1363.96C352.905 1367.6 352.009 1371.2 349.787 1373.84C348.778 1375.04 347.511 1376 346.08 1376.65C344.649 1377.31 343.089 1377.64 341.513 1377.62Z" fill="#A398F0"/>
<path d="M1322.86 221.346C1316.21 214.172 1306.92 210.221 1296.66 210.221C1286.35 210.221 1277.03 214.148 1270.4 221.277C1263.71 228.485 1260.45 238.281 1261.21 248.859C1262.73 269.729 1278.63 286.705 1296.66 286.705C1314.69 286.705 1330.56 269.732 1332.11 248.866C1332.88 238.384 1329.6 228.608 1322.86 221.346ZM1356.84 363.19H1236.49C1234.91 363.21 1233.35 362.88 1231.92 362.222C1230.49 361.565 1229.22 360.597 1228.21 359.389C1225.99 356.736 1225.09 353.114 1225.76 349.45C1228.64 333.463 1237.65 320.034 1251.8 310.607C1264.38 302.238 1280.31 297.632 1296.66 297.632C1313.01 297.632 1328.94 302.241 1341.52 310.607C1355.67 320.031 1364.68 333.46 1367.56 349.446C1368.23 353.11 1367.33 356.733 1365.11 359.386C1364.1 360.594 1362.83 361.563 1361.4 362.221C1359.97 362.879 1358.41 363.21 1356.84 363.19Z" fill="#A398F0"/>
<path d="M307.542 221.346C300.888 214.172 291.596 210.221 281.339 210.221C271.027 210.221 261.703 214.148 255.081 221.277C248.386 228.485 245.124 238.281 245.89 248.859C247.408 269.729 263.31 286.705 281.339 286.705C299.367 286.705 315.241 269.732 316.783 248.866C317.56 238.384 314.277 228.608 307.542 221.346ZM341.513 363.19H221.164C219.589 363.21 218.029 362.88 216.597 362.222C215.166 361.565 213.9 360.597 212.89 359.389C210.668 356.736 209.772 353.114 210.435 349.45C213.321 333.463 222.326 320.034 236.481 310.607C249.056 302.238 264.985 297.632 281.339 297.632C297.692 297.632 313.621 302.241 326.196 310.607C340.351 320.031 349.356 333.46 352.242 349.446C352.905 353.11 352.009 356.733 349.787 359.386C348.778 360.594 347.511 361.563 346.08 362.221C344.649 362.879 343.089 363.21 341.513 363.19Z" fill="#A398F0"/>
<path d="M1533.09 728.56C1526.43 721.386 1517.14 717.435 1506.88 717.435C1496.57 717.435 1487.25 721.362 1480.62 728.491C1473.93 735.699 1470.67 745.495 1471.43 756.074C1472.95 776.943 1488.85 793.92 1506.88 793.92C1524.91 793.92 1540.79 776.946 1542.33 756.08C1543.1 745.598 1539.82 735.822 1533.09 728.56ZM1567.06 870.404H1446.71C1445.13 870.424 1443.57 870.094 1442.14 869.436C1440.71 868.779 1439.44 867.811 1438.43 866.603C1436.21 863.95 1435.32 860.328 1435.98 856.664C1438.86 840.677 1447.87 827.248 1462.03 817.821C1474.6 809.452 1490.53 804.846 1506.88 804.846C1523.24 804.846 1539.16 809.455 1551.74 817.821C1565.89 827.245 1574.9 840.674 1577.79 856.661C1578.45 860.324 1577.55 863.947 1575.33 866.6C1574.32 867.808 1573.06 868.777 1571.62 869.435C1570.19 870.093 1568.63 870.424 1567.06 870.404Z" fill="#A398F0"/>
<path d="M815.368 1446.89C808.673 1439.72 799.321 1435.77 789 1435.77C778.623 1435.77 769.241 1439.69 762.577 1446.82C755.84 1454.03 752.558 1463.83 753.329 1474.4C754.856 1495.27 770.858 1512.25 789 1512.25C807.142 1512.25 823.116 1495.28 824.668 1474.41C825.449 1463.93 822.146 1454.15 815.368 1446.89ZM849.553 1588.73H728.447C726.862 1588.75 725.292 1588.42 723.852 1587.77C722.411 1587.11 721.137 1586.14 720.121 1584.93C717.885 1582.28 716.983 1578.66 717.651 1574.99C720.554 1559.01 729.617 1545.58 743.86 1536.15C756.515 1527.78 772.544 1523.18 789 1523.18C805.456 1523.18 821.485 1527.79 834.139 1536.15C848.383 1545.57 857.445 1559 860.349 1574.99C861.017 1578.65 860.115 1582.28 857.879 1584.93C856.863 1586.14 855.589 1587.11 854.149 1587.76C852.708 1588.42 851.138 1588.75 849.553 1588.73Z" fill="#A398F0"/>
<path d="M931.722 1433.23C930.454 1436.29 931.908 1439.8 934.97 1441.07L984.859 1461.74C987.92 1463 991.43 1461.55 992.698 1458.49C993.966 1455.43 992.513 1451.92 989.451 1450.65L945.105 1432.28L963.474 1387.93C964.742 1384.87 963.288 1381.36 960.227 1380.1C957.165 1378.83 953.655 1380.28 952.387 1383.34L931.722 1433.23ZM1126.18 1363.77C1129.24 1362.5 1130.7 1358.99 1129.43 1355.93C1128.16 1352.87 1124.65 1351.42 1121.59 1352.68L1126.18 1363.77ZM939.562 1441.07L1126.18 1363.77L1121.59 1352.68L934.97 1429.98L939.562 1441.07Z" fill="#A398F0"/>
<path d="M1360.52 446.93C1357.46 445.662 1353.95 447.116 1352.68 450.177L1332.02 500.067C1330.75 503.128 1332.2 506.638 1335.27 507.906C1338.33 509.174 1341.84 507.72 1343.11 504.659L1361.47 460.313L1405.82 478.681C1408.88 479.949 1412.39 478.496 1413.66 475.434C1414.93 472.373 1413.47 468.863 1410.41 467.595L1360.52 446.93ZM1441.07 636.798L1363.77 450.177L1352.68 454.769L1429.98 641.39L1441.07 636.798Z" fill="#A398F0"/>
<path d="M439.673 1352.68C436.612 1353.95 435.158 1357.46 436.426 1360.52L457.091 1410.41C458.359 1413.47 461.869 1414.93 464.93 1413.66C467.992 1412.39 469.446 1408.88 468.178 1405.82L449.809 1361.47L494.155 1343.11C497.217 1341.84 498.67 1338.33 497.402 1335.27C496.134 1332.2 492.624 1330.75 489.563 1332.02L439.673 1352.68ZM630.886 1441.07C633.948 1439.8 635.402 1436.29 634.134 1433.23L613.469 1383.34C612.201 1380.28 608.691 1378.83 605.629 1380.1C602.568 1381.36 601.114 1384.87 602.382 1387.93L620.751 1432.28L576.405 1450.65C573.343 1451.92 571.889 1455.43 573.158 1458.49C574.426 1461.55 577.935 1463 580.997 1461.74L630.886 1441.07ZM439.673 1363.77L626.294 1441.07L630.886 1429.98L444.266 1352.68L439.673 1363.77Z" fill="#A398F0"/>
<path d="M136.663 641.39C137.931 644.452 141.441 645.905 144.502 644.637L194.392 623.972C197.453 622.704 198.907 619.194 197.639 616.133C196.371 613.071 192.861 611.618 189.799 612.886L145.453 631.255L127.084 586.908C125.816 583.847 122.306 582.393 119.245 583.661C116.183 584.929 114.73 588.439 115.998 591.501L136.663 641.39ZM213.964 450.177L136.663 636.798L147.749 641.39L225.05 454.769L213.964 450.177Z" fill="#A398F0"/>
<path d="M1225.29 1197.77C1228.6 1197.65 1231.19 1194.87 1231.07 1191.55L1229.11 1137.59C1228.99 1134.28 1226.21 1131.69 1222.89 1131.81C1219.58 1131.93 1217 1134.71 1217.12 1138.03L1218.86 1185.99L1170.89 1187.74C1167.58 1187.86 1164.99 1190.64 1165.11 1193.95C1165.23 1197.26 1168.01 1199.85 1171.33 1199.73L1225.29 1197.77ZM365.973 401.116L1220.99 1196.17L1229.16 1187.38L374.144 392.328L365.973 401.116Z" fill="#A398F0"/>
<path d="M687.929 215.349C687.717 212.042 684.865 209.533 681.558 209.745L627.668 213.199C624.361 213.411 621.852 216.264 622.064 219.571C622.276 222.878 625.129 225.387 628.436 225.175L676.338 222.104L679.408 270.006C679.62 273.313 682.473 275.822 685.78 275.61C689.087 275.398 691.596 272.545 691.384 269.238L687.929 215.349ZM214.582 756.199L686.447 219.695L677.436 211.77L205.571 748.274L214.582 756.199Z" fill="#A398F0"/>
<path d="M315.549 487.764C313.206 485.421 309.407 485.421 307.064 487.764L268.88 525.948C266.537 528.291 266.537 532.09 268.88 534.433C271.223 536.776 275.022 536.776 277.365 534.433L311.306 500.492L345.247 534.433C347.59 536.776 351.389 536.776 353.733 534.433C356.076 532.09 356.076 528.291 353.733 525.948L315.549 487.764ZM317.306 1155.77L317.306 492.007H305.306L305.306 1155.77H317.306Z" fill="#A398F0"/>
<path d="M717.552 1364.23C720.866 1364.19 723.525 1361.48 723.493 1358.17L722.962 1304.17C722.929 1300.86 720.217 1298.2 716.903 1298.23C713.589 1298.26 710.93 1300.98 710.962 1304.29L711.434 1352.29L663.437 1352.76C660.123 1352.79 657.463 1355.5 657.496 1358.82C657.529 1362.13 660.241 1364.79 663.555 1364.76L717.552 1364.23ZM215.572 874.487L713.292 1362.51L721.694 1353.94L223.973 865.918L215.572 874.487Z" fill="#A398F0"/>
<path d="M364.059 1191.72C364.024 1195.03 366.681 1197.75 369.995 1197.78L423.992 1198.35C427.305 1198.39 430.02 1195.73 430.055 1192.42C430.09 1189.1 427.432 1186.39 424.119 1186.35L376.121 1185.85L376.628 1137.85C376.663 1134.53 374.005 1131.82 370.692 1131.79C367.378 1131.75 364.664 1134.41 364.629 1137.72L364.059 1191.72ZM1177.89 392.435L365.861 1187.49L374.256 1196.07L1186.28 401.009L1177.89 392.435Z" fill="#A398F0"/>
<path d="M793.243 205.978C790.899 203.635 787.101 203.635 784.757 205.978L746.574 244.162C744.23 246.505 744.23 250.304 746.574 252.648C748.917 254.991 752.716 254.991 755.059 252.648L789 218.706L822.941 252.648C825.284 254.991 829.083 254.991 831.426 252.648C833.77 250.304 833.77 246.505 831.426 244.162L793.243 205.978ZM795 1377.62L795 210.221H783L783 1377.62H795Z" fill="#A398F0"/>
<path d="M1265.13 1096.5C1267.48 1098.84 1271.28 1098.84 1273.62 1096.5L1311.8 1058.31C1314.15 1055.97 1314.15 1052.17 1311.8 1049.83C1309.46 1047.49 1305.66 1047.49 1303.32 1049.83L1269.38 1083.77L1235.44 1049.83C1233.09 1047.49 1229.29 1047.49 1226.95 1049.83C1224.61 1052.17 1224.61 1055.97 1226.95 1058.31L1265.13 1096.5ZM1263.38 421.337V1092.26H1275.38V421.337H1263.38Z" fill="#A398F0"/>
<path d="M214.924 790.125C212.581 792.468 212.581 796.267 214.924 798.61L253.108 836.794C255.451 839.137 259.25 839.137 261.593 836.794C263.936 834.451 263.936 830.652 261.593 828.309L227.652 794.367L261.593 760.426C263.936 758.083 263.936 754.284 261.593 751.941C259.25 749.598 255.451 749.598 253.108 751.941L214.924 790.125ZM1387.46 788.367L219.167 788.367V800.367L1387.46 800.367V788.367Z" fill="#A398F0"/>
<path d="M436.426 213.171C435.158 216.232 436.612 219.742 439.673 221.01L489.563 241.675C492.624 242.943 496.134 241.489 497.402 238.428C498.67 235.366 497.216 231.857 494.155 230.589L449.809 212.22L468.177 167.873C469.446 164.812 467.992 161.302 464.93 160.034C461.869 158.766 458.359 160.22 457.091 163.281L436.426 213.171ZM626.294 132.623L439.673 209.924L444.265 221.01L630.886 143.709L626.294 132.623Z" fill="#A398F0"/>
<path d="M1126.18 221.01C1129.24 219.742 1130.7 216.232 1129.43 213.171L1108.77 163.281C1107.5 160.22 1103.99 158.766 1100.93 160.034C1097.86 161.302 1096.41 164.812 1097.68 167.873L1116.05 212.22L1071.7 230.588C1068.64 231.857 1067.19 235.366 1068.45 238.428C1069.72 241.489 1073.23 242.943 1076.29 241.675L1126.18 221.01ZM939.562 132.623C936.501 131.355 932.991 132.808 931.723 135.87C930.455 138.931 931.908 142.441 934.97 143.709L939.562 132.623ZM1126.18 209.924L939.562 132.623L934.97 143.709L1121.59 221.01L1126.18 209.924Z" fill="#A398F0"/>
<path d="M1441.07 967.289C1439.8 964.228 1436.29 962.774 1433.23 964.042L1383.34 984.707C1380.28 985.975 1378.83 989.485 1380.1 992.546C1381.36 995.608 1384.87 997.062 1387.93 995.793L1432.28 977.425L1450.65 1021.77C1451.92 1024.83 1455.43 1026.29 1458.49 1025.02C1461.55 1023.75 1463 1020.24 1461.74 1017.18L1441.07 967.289ZM1363.77 1158.5L1441.07 971.881L1429.98 967.289L1352.68 1153.91L1363.77 1158.5Z" fill="#A398F0"/>
</svg>
