<svg width="1578" height="1837" viewBox="0 0 1578 1837" fill="none" xmlns="http://www.w3.org/2000/svg">
<path d="M815.368 11.1244C808.673 3.95055 799.321 0 789 0C778.623 0 769.241 3.92665 762.577 11.0561C755.84 18.264 752.558 28.0602 753.329 38.6382C754.856 59.5075 770.858 76.4842 789 76.4842C807.142 76.4842 823.116 59.5109 824.668 38.645C825.449 28.1626 822.146 18.387 815.368 11.1244ZM849.553 152.968H728.447C726.862 152.989 725.292 152.658 723.852 152.001C722.411 151.344 721.137 150.376 720.121 149.168C717.885 146.515 716.983 142.892 717.651 139.229C720.554 123.242 729.617 109.813 743.86 100.386C756.515 92.0167 772.544 87.4106 789 87.4106C805.456 87.4106 821.485 92.0201 834.139 100.386C848.383 109.81 857.445 123.239 860.349 139.225C861.017 142.889 860.115 146.512 857.879 149.165C856.863 150.373 855.589 151.342 854.149 152C852.708 152.658 851.138 152.989 849.553 152.968Z" fill="white"/>
<path d="M97.3206 728.56C90.6672 721.386 81.3744 717.435 71.1173 717.435C60.8056 717.435 51.482 721.362 44.8594 728.491C38.1649 735.699 34.9032 745.495 35.6691 756.074C37.1871 776.943 53.0889 793.92 71.1173 793.92C89.1458 793.92 105.02 776.946 106.562 756.08C107.338 745.598 104.056 735.822 97.3206 728.56ZM131.292 870.404H10.9428C9.36753 870.424 7.80751 870.094 6.37624 869.436C4.94496 868.779 3.67843 867.811 2.66879 866.603C0.44643 863.95 -0.449351 860.328 0.213937 856.664C3.09958 840.677 12.1053 827.248 26.26 817.821C38.8351 809.452 54.7642 804.846 71.1173 804.846C87.4705 804.846 103.4 809.455 115.975 817.821C130.129 827.245 139.135 840.674 142.021 856.661C142.684 860.324 141.788 863.947 139.566 866.6C138.557 867.808 137.29 868.777 135.859 869.435C134.428 870.093 132.867 870.424 131.292 870.404Z" fill="white"/>
<path d="M1533.09 728.56C1526.43 721.386 1517.14 717.435 1506.88 717.435C1496.57 717.435 1487.25 721.362 1480.62 728.491C1473.93 735.699 1470.67 745.495 1471.43 756.074C1472.95 776.943 1488.85 793.92 1506.88 793.92C1524.91 793.92 1540.79 776.946 1542.33 756.08C1543.1 745.598 1539.82 735.822 1533.09 728.56ZM1567.06 870.404H1446.71C1445.13 870.424 1443.57 870.094 1442.14 869.436C1440.71 868.779 1439.44 867.811 1438.43 866.603C1436.21 863.95 1435.32 860.328 1435.98 856.664C1438.86 840.677 1447.87 827.248 1462.03 817.821C1474.6 809.452 1490.53 804.846 1506.88 804.846C1523.24 804.846 1539.16 809.455 1551.74 817.821C1565.89 827.245 1574.9 840.674 1577.79 856.661C1578.45 860.324 1577.55 863.947 1575.33 866.6C1574.32 867.808 1573.06 868.777 1571.62 869.435C1570.19 870.093 1568.63 870.424 1567.06 870.404Z" fill="white"/>
<path d="M815.368 1446.89C808.673 1439.72 799.321 1435.77 789 1435.77C778.623 1435.77 769.241 1439.69 762.577 1446.82C755.84 1454.03 752.558 1463.83 753.329 1474.4C754.856 1495.27 770.858 1512.25 789 1512.25C807.142 1512.25 823.116 1495.28 824.668 1474.41C825.449 1463.93 822.146 1454.15 815.368 1446.89ZM849.553 1588.73H728.447C726.862 1588.75 725.292 1588.42 723.852 1587.77C722.411 1587.11 721.137 1586.14 720.121 1584.93C717.885 1582.28 716.983 1578.66 717.651 1574.99C720.554 1559.01 729.617 1545.58 743.86 1536.15C756.515 1527.78 772.544 1523.18 789 1523.18C805.456 1523.18 821.485 1527.79 834.139 1536.15C848.383 1545.57 857.445 1559 860.349 1574.99C861.017 1578.65 860.115 1582.28 857.879 1584.93C856.863 1586.14 855.589 1587.11 854.149 1587.76C852.708 1588.42 851.138 1588.75 849.553 1588.73Z" fill="white"/>
<path d="M815.368 11.1244C808.673 3.95055 799.321 0 789 0C778.623 0 769.241 3.92665 762.577 11.0561C755.84 18.264 752.558 28.0602 753.329 38.6382C754.856 59.5075 770.858 76.4842 789 76.4842C807.142 76.4842 823.116 59.5109 824.668 38.645C825.449 28.1626 822.146 18.387 815.368 11.1244ZM849.553 152.968H728.447C726.862 152.989 725.292 152.658 723.852 152.001C722.411 151.344 721.137 150.376 720.121 149.168C717.885 146.515 716.983 142.892 717.651 139.229C720.554 123.242 729.617 109.813 743.86 100.386C756.515 92.0167 772.544 87.4106 789 87.4106C805.456 87.4106 821.485 92.0201 834.139 100.386C848.383 109.81 857.445 123.239 860.349 139.225C861.017 142.889 860.115 146.512 857.879 149.165C856.863 150.373 855.589 151.342 854.149 152C852.708 152.658 851.138 152.989 849.553 152.968Z" fill="#A398F0"/>
<path d="M97.3206 728.56C90.6672 721.386 81.3744 717.435 71.1173 717.435C60.8056 717.435 51.482 721.362 44.8594 728.491C38.1649 735.699 34.9032 745.495 35.6691 756.074C37.1871 776.943 53.0889 793.92 71.1173 793.92C89.1458 793.92 105.02 776.946 106.562 756.08C107.338 745.598 104.056 735.822 97.3206 728.56ZM131.292 870.404H10.9428C9.36753 870.424 7.80751 870.094 6.37624 869.436C4.94496 868.779 3.67843 867.811 2.66879 866.603C0.44643 863.95 -0.449351 860.328 0.213937 856.664C3.09958 840.677 12.1053 827.248 26.26 817.821C38.8351 809.452 54.7642 804.846 71.1173 804.846C87.4705 804.846 103.4 809.455 115.975 817.821C130.129 827.245 139.135 840.674 142.021 856.661C142.684 860.324 141.788 863.947 139.566 866.6C138.557 867.808 137.29 868.777 135.859 869.435C134.428 870.093 132.867 870.424 131.292 870.404Z" fill="#A398F0"/>
<path d="M1322.86 1236.6C1316.21 1229.47 1306.92 1225.54 1296.66 1225.54C1286.35 1225.54 1277.03 1229.45 1270.4 1236.54C1263.71 1243.7 1260.45 1253.44 1261.21 1263.96C1262.73 1284.7 1278.63 1301.58 1296.66 1301.58C1314.69 1301.58 1330.56 1284.71 1332.11 1263.96C1332.88 1253.54 1329.6 1243.82 1322.86 1236.6ZM1356.84 1377.62H1236.49C1234.91 1377.64 1233.35 1377.31 1231.92 1376.66C1230.49 1376 1229.22 1375.04 1228.21 1373.84C1225.99 1371.2 1225.09 1367.6 1225.76 1363.96C1228.64 1348.07 1237.65 1334.71 1251.8 1325.34C1264.38 1317.02 1280.31 1312.44 1296.66 1312.44C1313.01 1312.44 1328.94 1317.03 1341.52 1325.34C1355.67 1334.71 1364.68 1348.06 1367.56 1363.96C1368.23 1367.6 1367.33 1371.2 1365.11 1373.84C1364.1 1375.04 1362.83 1376 1361.4 1376.65C1359.97 1377.31 1358.41 1377.64 1356.84 1377.62Z" fill="#A398F0"/>
<path d="M307.542 1236.6C300.888 1229.47 291.596 1225.54 281.339 1225.54C271.027 1225.54 261.703 1229.45 255.081 1236.54C248.386 1243.7 245.124 1253.44 245.89 1263.96C247.408 1284.7 263.31 1301.58 281.339 1301.58C299.367 1301.58 315.241 1284.71 316.783 1263.96C317.56 1253.54 314.277 1243.82 307.542 1236.6ZM341.513 1377.62H221.164C219.589 1377.64 218.029 1377.31 216.597 1376.66C215.166 1376 213.9 1375.04 212.89 1373.84C210.668 1371.2 209.772 1367.6 210.435 1363.96C213.321 1348.07 222.326 1334.71 236.481 1325.34C249.056 1317.02 264.985 1312.44 281.339 1312.44C297.692 1312.44 313.621 1317.03 326.196 1325.34C340.351 1334.71 349.356 1348.06 352.242 1363.96C352.905 1367.6 352.009 1371.2 349.787 1373.84C348.778 1375.04 347.511 1376 346.08 1376.65C344.649 1377.31 343.089 1377.64 341.513 1377.62Z" fill="#A398F0"/>
<path d="M1322.86 221.346C1316.21 214.172 1306.92 210.221 1296.66 210.221C1286.35 210.221 1277.03 214.148 1270.4 221.277C1263.71 228.485 1260.45 238.281 1261.21 248.859C1262.73 269.729 1278.63 286.705 1296.66 286.705C1314.69 286.705 1330.56 269.732 1332.11 248.866C1332.88 238.384 1329.6 228.608 1322.86 221.346ZM1356.84 363.19H1236.49C1234.91 363.21 1233.35 362.88 1231.92 362.222C1230.49 361.565 1229.22 360.597 1228.21 359.389C1225.99 356.736 1225.09 353.114 1225.76 349.45C1228.64 333.463 1237.65 320.034 1251.8 310.607C1264.38 302.238 1280.31 297.632 1296.66 297.632C1313.01 297.632 1328.94 302.241 1341.52 310.607C1355.67 320.031 1364.68 333.46 1367.56 349.446C1368.23 353.11 1367.33 356.733 1365.11 359.386C1364.1 360.594 1362.83 361.563 1361.4 362.221C1359.97 362.879 1358.41 363.21 1356.84 363.19Z" fill="#A398F0"/>
<path d="M307.542 221.346C300.888 214.172 291.596 210.221 281.339 210.221C271.027 210.221 261.703 214.148 255.081 221.277C248.386 228.485 245.124 238.281 245.89 248.859C247.408 269.729 263.31 286.705 281.339 286.705C299.367 286.705 315.241 269.732 316.783 248.866C317.56 238.384 314.277 228.608 307.542 221.346ZM341.513 363.19H221.164C219.589 363.21 218.029 362.88 216.597 362.222C215.166 361.565 213.9 360.597 212.89 359.389C210.668 356.736 209.772 353.114 210.435 349.45C213.321 333.463 222.326 320.034 236.481 310.607C249.056 302.238 264.985 297.632 281.339 297.632C297.692 297.632 313.621 302.241 326.196 310.607C340.351 320.031 349.356 333.46 352.242 349.446C352.905 353.11 352.009 356.733 349.787 359.386C348.778 360.594 347.511 361.563 346.08 362.221C344.649 362.879 343.089 363.21 341.513 363.19Z" fill="#A398F0"/>
<path d="M1533.09 728.56C1526.43 721.386 1517.14 717.435 1506.88 717.435C1496.57 717.435 1487.25 721.362 1480.62 728.491C1473.93 735.699 1470.67 745.495 1471.43 756.074C1472.95 776.943 1488.85 793.92 1506.88 793.92C1524.91 793.92 1540.79 776.946 1542.33 756.08C1543.1 745.598 1539.82 735.822 1533.09 728.56ZM1567.06 870.404H1446.71C1445.13 870.424 1443.57 870.094 1442.14 869.436C1440.71 868.779 1439.44 867.811 1438.43 866.603C1436.21 863.95 1435.32 860.328 1435.98 856.664C1438.86 840.677 1447.87 827.248 1462.03 817.821C1474.6 809.452 1490.53 804.846 1506.88 804.846C1523.24 804.846 1539.16 809.455 1551.74 817.821C1565.89 827.245 1574.9 840.674 1577.79 856.661C1578.45 860.324 1577.55 863.947 1575.33 866.6C1574.32 867.808 1573.06 868.777 1571.62 869.435C1570.19 870.093 1568.63 870.424 1567.06 870.404Z" fill="#A398F0"/>
<path d="M815.368 1446.89C808.673 1439.72 799.321 1435.77 789 1435.77C778.623 1435.77 769.241 1439.69 762.577 1446.82C755.84 1454.03 752.558 1463.83 753.329 1474.4C754.856 1495.27 770.858 1512.25 789 1512.25C807.142 1512.25 823.116 1495.28 824.668 1474.41C825.449 1463.93 822.146 1454.15 815.368 1446.89ZM849.553 1588.73H728.447C726.862 1588.75 725.292 1588.42 723.852 1587.77C722.411 1587.11 721.137 1586.14 720.121 1584.93C717.885 1582.28 716.983 1578.66 717.651 1574.99C720.554 1559.01 729.617 1545.58 743.86 1536.15C756.515 1527.78 772.544 1523.18 789 1523.18C805.456 1523.18 821.485 1527.79 834.139 1536.15C848.383 1545.57 857.445 1559 860.349 1574.99C861.017 1578.65 860.115 1582.28 857.879 1584.93C856.863 1586.14 855.589 1587.11 854.149 1587.76C852.708 1588.42 851.138 1588.75 849.553 1588.73Z" fill="#A398F0"/>
<path d="M931.722 1433.23C930.454 1436.29 931.908 1439.8 934.97 1441.07L984.859 1461.74C987.92 1463 991.43 1461.55 992.698 1458.49C993.966 1455.43 992.513 1451.92 989.451 1450.65L945.105 1432.28L963.474 1387.93C964.742 1384.87 963.288 1381.36 960.227 1380.1C957.165 1378.83 953.655 1380.28 952.387 1383.34L931.722 1433.23ZM1126.18 1363.77C1129.24 1362.5 1130.7 1358.99 1129.43 1355.93C1128.16 1352.87 1124.65 1351.42 1121.59 1352.68L1126.18 1363.77ZM939.562 1441.07L1126.18 1363.77L1121.59 1352.68L934.97 1429.98L939.562 1441.07Z" fill="#A398F0"/>
<path d="M1360.52 446.93C1357.46 445.662 1353.95 447.116 1352.68 450.177L1332.02 500.067C1330.75 503.128 1332.2 506.638 1335.27 507.906C1338.33 509.174 1341.84 507.72 1343.11 504.659L1361.47 460.313L1405.82 478.681C1408.88 479.949 1412.39 478.496 1413.66 475.434C1414.93 472.373 1413.47 468.863 1410.41 467.595L1360.52 446.93ZM1441.07 636.798L1363.77 450.177L1352.68 454.769L1429.98 641.39L1441.07 636.798Z" fill="#A398F0"/>
<path d="M439.673 1352.68C436.612 1353.95 435.158 1357.46 436.426 1360.52L457.091 1410.41C458.359 1413.47 461.869 1414.93 464.93 1413.66C467.992 1412.39 469.446 1408.88 468.178 1405.82L449.809 1361.47L494.155 1343.11C497.217 1341.84 498.67 1338.33 497.402 1335.27C496.134 1332.2 492.624 1330.75 489.563 1332.02L439.673 1352.68ZM630.886 1441.07C633.948 1439.8 635.402 1436.29 634.134 1433.23L613.469 1383.34C612.201 1380.28 608.691 1378.83 605.629 1380.1C602.568 1381.36 601.114 1384.87 602.382 1387.93L620.751 1432.28L576.405 1450.65C573.343 1451.92 571.889 1455.43 573.158 1458.49C574.426 1461.55 577.935 1463 580.997 1461.74L630.886 1441.07ZM439.673 1363.77L626.294 1441.07L630.886 1429.98L444.266 1352.68L439.673 1363.77Z" fill="#A398F0"/>
<path d="M136.663 641.39C137.931 644.452 141.441 645.905 144.502 644.637L194.392 623.972C197.453 622.704 198.907 619.194 197.639 616.133C196.371 613.071 192.861 611.618 189.799 612.886L145.453 631.255L127.084 586.908C125.816 583.847 122.306 582.393 119.245 583.661C116.183 584.929 114.73 588.439 115.998 591.501L136.663 641.39ZM213.964 450.177L136.663 636.798L147.749 641.39L225.05 454.769L213.964 450.177Z" fill="#A398F0"/>
<path d="M1225.29 1197.77C1228.6 1197.65 1231.19 1194.87 1231.07 1191.55L1229.11 1137.59C1228.99 1134.28 1226.21 1131.69 1222.89 1131.81C1219.58 1131.93 1217 1134.71 1217.12 1138.03L1218.86 1185.99L1170.89 1187.74C1167.58 1187.86 1164.99 1190.64 1165.11 1193.95C1165.23 1197.26 1168.01 1199.85 1171.33 1199.73L1225.29 1197.77ZM365.973 401.116L1220.99 1196.17L1229.16 1187.38L374.144 392.328L365.973 401.116Z" fill="#A398F0"/>
<path d="M687.929 215.349C687.717 212.042 684.865 209.533 681.558 209.745L627.668 213.199C624.361 213.411 621.852 216.264 622.064 219.571C622.276 222.878 625.129 225.387 628.436 225.175L676.338 222.104L679.408 270.006C679.62 273.313 682.473 275.822 685.78 275.61C689.087 275.398 691.596 272.545 691.384 269.238L687.929 215.349ZM214.582 756.199L686.447 219.695L677.436 211.77L205.571 748.274L214.582 756.199Z" fill="#A398F0"/>
<path d="M315.549 487.764C313.206 485.421 309.407 485.421 307.064 487.764L268.88 525.948C266.537 528.291 266.537 532.09 268.88 534.433C271.223 536.776 275.022 536.776 277.365 534.433L311.306 500.492L345.247 534.433C347.59 536.776 351.389 536.776 353.733 534.433C356.076 532.09 356.076 528.291 353.733 525.948L315.549 487.764ZM317.306 1155.77L317.306 492.007H305.306L305.306 1155.77H317.306Z" fill="#A398F0"/>
<path d="M717.552 1364.23C720.866 1364.19 723.525 1361.48 723.493 1358.17L722.962 1304.17C722.929 1300.86 720.217 1298.2 716.903 1298.23C713.589 1298.26 710.93 1300.98 710.962 1304.29L711.434 1352.29L663.437 1352.76C660.123 1352.79 657.463 1355.5 657.496 1358.82C657.529 1362.13 660.241 1364.79 663.555 1364.76L717.552 1364.23ZM215.572 874.487L713.292 1362.51L721.694 1353.94L223.973 865.918L215.572 874.487Z" fill="#A398F0"/>
<path d="M364.059 1191.72C364.024 1195.03 366.681 1197.75 369.995 1197.78L423.992 1198.35C427.305 1198.39 430.02 1195.73 430.055 1192.42C430.09 1189.1 427.432 1186.39 424.119 1186.35L376.121 1185.85L376.628 1137.85C376.663 1134.53 374.005 1131.82 370.692 1131.79C367.378 1131.75 364.664 1134.41 364.629 1137.72L364.059 1191.72ZM1177.89 392.435L365.861 1187.49L374.256 1196.07L1186.28 401.009L1177.89 392.435Z" fill="#A398F0"/>
<path d="M793.243 205.978C790.899 203.635 787.101 203.635 784.757 205.978L746.574 244.162C744.23 246.505 744.23 250.304 746.574 252.648C748.917 254.991 752.716 254.991 755.059 252.648L789 218.706L822.941 252.648C825.284 254.991 829.083 254.991 831.426 252.648C833.77 250.304 833.77 246.505 831.426 244.162L793.243 205.978ZM795 1377.62L795 210.221H783L783 1377.62H795Z" fill="#A398F0"/>
<path d="M1265.13 1096.5C1267.48 1098.84 1271.28 1098.84 1273.62 1096.5L1311.8 1058.31C1314.15 1055.97 1314.15 1052.17 1311.8 1049.83C1309.46 1047.49 1305.66 1047.49 1303.32 1049.83L1269.38 1083.77L1235.44 1049.83C1233.09 1047.49 1229.29 1047.49 1226.95 1049.83C1224.61 1052.17 1224.61 1055.97 1226.95 1058.31L1265.13 1096.5ZM1263.38 421.337V1092.26H1275.38V421.337H1263.38Z" fill="#A398F0"/>
<path d="M214.924 790.125C212.581 792.468 212.581 796.267 214.924 798.61L253.108 836.794C255.451 839.137 259.25 839.137 261.593 836.794C263.936 834.451 263.936 830.652 261.593 828.309L227.652 794.367L261.593 760.426C263.936 758.083 263.936 754.284 261.593 751.941C259.25 749.598 255.451 749.598 253.108 751.941L214.924 790.125ZM1387.46 788.367L219.167 788.367V800.367L1387.46 800.367V788.367Z" fill="#A398F0"/>
<path d="M436.426 213.171C435.158 216.232 436.612 219.742 439.673 221.01L489.563 241.675C492.624 242.943 496.134 241.489 497.402 238.428C498.67 235.366 497.216 231.857 494.155 230.589L449.809 212.22L468.177 167.873C469.446 164.812 467.992 161.302 464.93 160.034C461.869 158.766 458.359 160.22 457.091 163.281L436.426 213.171ZM626.294 132.623L439.673 209.924L444.265 221.01L630.886 143.709L626.294 132.623Z" fill="#A398F0"/>
<path d="M1126.18 221.01C1129.24 219.742 1130.7 216.232 1129.43 213.171L1108.77 163.281C1107.5 160.22 1103.99 158.766 1100.93 160.034C1097.86 161.302 1096.41 164.812 1097.68 167.873L1116.05 212.22L1071.7 230.588C1068.64 231.857 1067.19 235.366 1068.45 238.428C1069.72 241.489 1073.23 242.943 1076.29 241.675L1126.18 221.01ZM939.562 132.623C936.501 131.355 932.991 132.808 931.723 135.87C930.455 138.931 931.908 142.441 934.97 143.709L939.562 132.623ZM1126.18 209.924L939.562 132.623L934.97 143.709L1121.59 221.01L1126.18 209.924Z" fill="#A398F0"/>
<path d="M1441.07 967.289C1439.8 964.228 1436.29 962.774 1433.23 964.042L1383.34 984.707C1380.28 985.975 1378.83 989.485 1380.1 992.546C1381.36 995.608 1384.87 997.062 1387.93 995.793L1432.28 977.425L1450.65 1021.77C1451.92 1024.83 1455.43 1026.29 1458.49 1025.02C1461.55 1023.75 1463 1020.24 1461.74 1017.18L1441.07 967.289ZM1363.77 1158.5L1441.07 971.881L1429.98 967.289L1352.68 1153.91L1363.77 1158.5Z" fill="#A398F0"/>
<!-- <path d="M884.243 1796.24C886.586 1793.9 886.586 1790.1 884.243 1787.76L846.059 1749.57C843.716 1747.23 839.917 1747.23 837.574 1749.57C835.23 1751.92 835.23 1755.72 837.574 1758.06L871.515 1792L837.574 1825.94C835.23 1828.28 835.23 1832.08 837.574 1834.43C839.917 1836.77 843.716 1836.77 846.059 1834.43L884.243 1796.24ZM694 1798H880V1786H694V1798Z" fill="#A398F0"/> -->
<!-- <path d="M643.892 1702.18C643.892 1706.94 642.99 1710.99 641.186 1714.33C639.396 1717.66 636.953 1720.21 633.857 1721.98C630.774 1723.72 627.308 1724.6 623.459 1724.6C619.581 1724.6 616.101 1723.72 613.018 1721.95C609.936 1720.19 607.5 1717.64 605.71 1714.31C603.92 1710.97 603.026 1706.93 603.026 1702.18C603.026 1697.42 603.92 1693.38 605.71 1690.04C607.5 1686.7 609.936 1684.16 613.018 1682.41C616.101 1680.65 619.581 1679.77 623.459 1679.77C627.308 1679.77 630.774 1680.65 633.857 1682.41C636.953 1684.16 639.396 1686.7 641.186 1690.04C642.99 1693.38 643.892 1697.42 643.892 1702.18ZM634.538 1702.18C634.538 1699.1 634.077 1696.5 633.153 1694.38C632.244 1692.27 630.959 1690.66 629.297 1689.57C627.635 1688.47 625.689 1687.93 623.459 1687.93C621.229 1687.93 619.283 1688.47 617.621 1689.57C615.959 1690.66 614.666 1692.27 613.743 1694.38C612.834 1696.5 612.379 1699.1 612.379 1702.18C612.379 1705.26 612.834 1707.86 613.743 1709.98C614.666 1712.1 615.959 1713.7 617.621 1714.8C619.283 1715.89 621.229 1716.44 623.459 1716.44C625.689 1716.44 627.635 1715.89 629.297 1714.8C630.959 1713.7 632.244 1712.1 633.153 1709.98C634.077 1707.86 634.538 1705.26 634.538 1702.18ZM650.556 1736.27V1691.27H659.505V1696.77H659.909C660.307 1695.89 660.882 1694.99 661.635 1694.09C662.402 1693.16 663.397 1692.39 664.618 1691.78C665.854 1691.16 667.388 1690.85 669.221 1690.85C671.607 1690.85 673.809 1691.47 675.826 1692.72C677.843 1693.96 679.455 1695.83 680.662 1698.33C681.87 1700.81 682.473 1703.93 682.473 1707.68C682.473 1711.33 681.884 1714.41 680.705 1716.93C679.54 1719.43 677.949 1721.32 675.932 1722.62C673.929 1723.89 671.685 1724.53 669.199 1724.53C667.438 1724.53 665.939 1724.24 664.703 1723.66C663.482 1723.08 662.48 1722.35 661.699 1721.46C660.918 1720.57 660.321 1719.67 659.909 1718.76H659.632V1736.27H650.556ZM659.441 1707.64C659.441 1709.58 659.711 1711.28 660.25 1712.73C660.79 1714.18 661.571 1715.31 662.594 1716.12C663.617 1716.91 664.86 1717.31 666.323 1717.31C667.8 1717.31 669.05 1716.9 670.073 1716.1C671.096 1715.27 671.87 1714.13 672.395 1712.69C672.935 1711.22 673.205 1709.54 673.205 1707.64C673.205 1705.75 672.942 1704.09 672.417 1702.65C671.891 1701.22 671.117 1700.09 670.094 1699.28C669.071 1698.47 667.814 1698.07 666.323 1698.07C664.846 1698.07 663.596 1698.46 662.573 1699.24C661.564 1700.02 660.79 1701.13 660.25 1702.57C659.711 1704 659.441 1705.69 659.441 1707.64ZM705.932 1691.27V1698.09H686.223V1691.27H705.932ZM690.698 1683.43H699.775V1713.94C699.775 1714.78 699.902 1715.43 700.158 1715.9C700.414 1716.36 700.769 1716.68 701.223 1716.86C701.692 1717.05 702.232 1717.14 702.843 1717.14C703.269 1717.14 703.695 1717.1 704.121 1717.03C704.547 1716.95 704.874 1716.88 705.101 1716.84L706.529 1723.6C706.074 1723.74 705.435 1723.9 704.611 1724.09C703.787 1724.28 702.786 1724.4 701.607 1724.45C699.419 1724.53 697.502 1724.24 695.854 1723.57C694.221 1722.91 692.949 1721.87 692.04 1720.46C691.131 1719.06 690.684 1717.28 690.698 1715.14V1683.43ZM711.845 1724V1691.27H720.922V1724H711.845ZM716.404 1687.05C715.055 1687.05 713.897 1686.61 712.931 1685.71C711.98 1684.8 711.504 1683.72 711.504 1682.45C711.504 1681.2 711.98 1680.13 712.931 1679.23C713.897 1678.33 715.055 1677.87 716.404 1677.87C717.754 1677.87 718.904 1678.33 719.856 1679.23C720.822 1680.13 721.305 1681.2 721.305 1682.45C721.305 1683.72 720.822 1684.8 719.856 1685.71C718.904 1686.61 717.754 1687.05 716.404 1687.05ZM728.192 1724V1691.27H736.843V1697.05H737.227C737.908 1695.13 739.045 1693.62 740.636 1692.51C742.227 1691.4 744.13 1690.85 746.346 1690.85C748.59 1690.85 750.501 1691.41 752.077 1692.53C753.654 1693.64 754.705 1695.14 755.231 1697.05H755.572C756.239 1695.17 757.447 1693.67 759.194 1692.55C760.955 1691.41 763.036 1690.85 765.437 1690.85C768.491 1690.85 770.969 1691.82 772.873 1693.77C774.79 1695.7 775.749 1698.44 775.749 1701.99V1724H766.694V1703.78C766.694 1701.96 766.211 1700.6 765.245 1699.69C764.279 1698.78 763.072 1698.33 761.623 1698.33C759.975 1698.33 758.69 1698.85 757.766 1699.9C756.843 1700.94 756.381 1702.31 756.381 1704.01V1724H747.582V1703.59C747.582 1701.98 747.12 1700.7 746.197 1699.75C745.288 1698.8 744.087 1698.33 742.596 1698.33C741.587 1698.33 740.678 1698.58 739.869 1699.09C739.073 1699.59 738.441 1700.29 737.972 1701.2C737.504 1702.1 737.269 1703.15 737.269 1704.36V1724H728.192ZM792.251 1724.62C790.163 1724.62 788.303 1724.26 786.669 1723.53C785.036 1722.79 783.743 1721.71 782.791 1720.27C781.854 1718.82 781.385 1717.02 781.385 1714.86C781.385 1713.04 781.719 1711.51 782.386 1710.28C783.054 1709.04 783.963 1708.05 785.114 1707.3C786.264 1706.54 787.571 1705.97 789.034 1705.59C790.511 1705.21 792.06 1704.94 793.679 1704.78C795.582 1704.58 797.116 1704.4 798.281 1704.23C799.446 1704.04 800.291 1703.77 800.817 1703.42C801.342 1703.06 801.605 1702.54 801.605 1701.84V1701.71C801.605 1700.36 801.179 1699.32 800.327 1698.58C799.489 1697.84 798.295 1697.47 796.747 1697.47C795.114 1697.47 793.814 1697.84 792.848 1698.56C791.882 1699.27 791.243 1700.16 790.93 1701.24L782.536 1700.56C782.962 1698.57 783.8 1696.86 785.05 1695.41C786.3 1693.94 787.912 1692.82 789.886 1692.04C791.875 1691.24 794.176 1690.85 796.79 1690.85C798.608 1690.85 800.348 1691.06 802.01 1691.49C803.686 1691.91 805.17 1692.57 806.463 1693.47C807.77 1694.36 808.8 1695.51 809.553 1696.92C810.305 1698.31 810.682 1699.98 810.682 1701.93V1724H802.074V1719.46H801.818C801.293 1720.48 800.589 1721.39 799.709 1722.17C798.828 1722.93 797.77 1723.54 796.534 1723.98C795.298 1724.4 793.871 1724.62 792.251 1724.62ZM794.851 1718.35C796.186 1718.35 797.365 1718.09 798.388 1717.57C799.411 1717.03 800.213 1716.3 800.795 1715.39C801.378 1714.48 801.669 1713.45 801.669 1712.3V1708.83C801.385 1709.01 800.994 1709.18 800.497 1709.34C800.014 1709.48 799.467 1709.62 798.857 1709.75C798.246 1709.86 797.635 1709.97 797.024 1710.07C796.413 1710.15 795.859 1710.23 795.362 1710.3C794.297 1710.46 793.366 1710.7 792.571 1711.05C791.776 1711.39 791.158 1711.85 790.717 1712.43C790.277 1713 790.057 1713.71 790.057 1714.56C790.057 1715.8 790.504 1716.74 791.399 1717.39C792.308 1718.03 793.459 1718.35 794.851 1718.35ZM826.8 1680.36V1724H817.724V1680.36H826.8ZM848.129 1724V1680.36H865.344C868.654 1680.36 871.474 1681 873.803 1682.26C876.133 1683.51 877.908 1685.25 879.13 1687.48C880.366 1689.7 880.984 1692.25 880.984 1695.15C880.984 1698.05 880.359 1700.61 879.109 1702.82C877.859 1705.04 876.048 1706.76 873.675 1708C871.317 1709.23 868.462 1709.85 865.11 1709.85H854.137V1702.46H863.619C865.394 1702.46 866.857 1702.15 868.008 1701.54C869.173 1700.92 870.039 1700.06 870.607 1698.96C871.19 1697.86 871.481 1696.59 871.481 1695.15C871.481 1693.7 871.19 1692.44 870.607 1691.36C870.039 1690.26 869.173 1689.42 868.008 1688.82C866.843 1688.21 865.366 1687.91 863.576 1687.91H857.354V1724H848.129ZM895.259 1724.62C893.171 1724.62 891.31 1724.26 889.677 1723.53C888.043 1722.79 886.751 1721.71 885.799 1720.27C884.862 1718.82 884.393 1717.02 884.393 1714.86C884.393 1713.04 884.727 1711.51 885.394 1710.28C886.062 1709.04 886.971 1708.05 888.121 1707.3C889.272 1706.54 890.579 1705.97 892.042 1705.59C893.519 1705.21 895.067 1704.94 896.687 1704.78C898.59 1704.58 900.124 1704.4 901.289 1704.23C902.454 1704.04 903.299 1703.77 903.825 1703.42C904.35 1703.06 904.613 1702.54 904.613 1701.84V1701.71C904.613 1700.36 904.187 1699.32 903.335 1698.58C902.496 1697.84 901.303 1697.47 899.755 1697.47C898.121 1697.47 896.822 1697.84 895.856 1698.56C894.89 1699.27 894.251 1700.16 893.938 1701.24L885.543 1700.56C885.969 1698.57 886.808 1696.86 888.058 1695.41C889.308 1693.94 890.92 1692.82 892.894 1692.04C894.883 1691.24 897.184 1690.85 899.798 1690.85C901.616 1690.85 903.356 1691.06 905.018 1691.49C906.694 1691.91 908.178 1692.57 909.471 1693.47C910.778 1694.36 911.808 1695.51 912.56 1696.92C913.313 1698.31 913.69 1699.98 913.69 1701.93V1724H905.082V1719.46H904.826C904.3 1720.48 903.597 1721.39 902.717 1722.17C901.836 1722.93 900.778 1723.54 899.542 1723.98C898.306 1724.4 896.879 1724.62 895.259 1724.62ZM897.859 1718.35C899.194 1718.35 900.373 1718.09 901.396 1717.57C902.418 1717.03 903.221 1716.3 903.803 1715.39C904.386 1714.48 904.677 1713.45 904.677 1712.3V1708.83C904.393 1709.01 904.002 1709.18 903.505 1709.34C903.022 1709.48 902.475 1709.62 901.864 1709.75C901.254 1709.86 900.643 1709.97 900.032 1710.07C899.421 1710.15 898.867 1710.23 898.37 1710.3C897.305 1710.46 896.374 1710.7 895.579 1711.05C894.783 1711.39 894.165 1711.85 893.725 1712.43C893.285 1713 893.065 1713.71 893.065 1714.56C893.065 1715.8 893.512 1716.74 894.407 1717.39C895.316 1718.03 896.467 1718.35 897.859 1718.35ZM938.139 1691.27V1698.09H918.43V1691.27H938.139ZM922.905 1683.43H931.982V1713.94C931.982 1714.78 932.109 1715.43 932.365 1715.9C932.621 1716.36 932.976 1716.68 933.43 1716.86C933.899 1717.05 934.439 1717.14 935.05 1717.14C935.476 1717.14 935.902 1717.1 936.328 1717.03C936.754 1716.95 937.081 1716.88 937.308 1716.84L938.736 1723.6C938.281 1723.74 937.642 1723.9 936.818 1724.09C935.994 1724.28 934.993 1724.4 933.814 1724.45C931.626 1724.53 929.709 1724.24 928.061 1723.57C926.428 1722.91 925.156 1721.87 924.247 1720.46C923.338 1719.06 922.891 1717.28 922.905 1715.14V1683.43ZM953.832 1705.08V1724H944.755V1680.36H953.576V1697.05H953.96C954.698 1695.12 955.891 1693.6 957.539 1692.51C959.187 1691.4 961.254 1690.85 963.739 1690.85C966.012 1690.85 967.994 1691.34 969.684 1692.34C971.388 1693.32 972.71 1694.73 973.647 1696.58C974.599 1698.41 975.067 1700.61 975.053 1703.16V1724H965.977V1704.78C965.991 1702.76 965.479 1701.19 964.442 1700.07C963.42 1698.95 961.985 1698.39 960.138 1698.39C958.903 1698.39 957.809 1698.65 956.857 1699.18C955.92 1699.7 955.181 1700.47 954.641 1701.48C954.116 1702.47 953.846 1703.67 953.832 1705.08Z" fill="#A398F0"/> -->
</svg>
