<svg width="1576" height="1407" viewBox="0 0 1576 1407" fill="none" xmlns="http://www.w3.org/2000/svg">
<path d="M789.322 0C767.912 0 754.045 8.75061 743.158 24.3566C741.183 27.1875 741.792 31.069 744.547 33.1529L756.118 41.9051C758.9 44.0096 762.859 43.5176 765.037 40.7952C771.756 32.3984 776.74 27.5638 787.235 27.5638C795.487 27.5638 805.693 32.8615 805.693 40.8439C805.693 46.8784 800.7 49.9774 792.552 54.5343C783.051 59.8484 770.477 66.4619 770.477 83.0059V85.625C770.477 89.1717 773.359 92.0469 776.915 92.0469H796.353C799.909 92.0469 802.791 89.1717 802.791 85.625V84.0803C802.791 72.6119 836.391 72.1342 836.391 41.1C836.392 17.7287 812.09 0 789.322 0ZM786.634 99.9295C776.389 99.9295 768.054 108.244 768.054 118.465C768.054 128.685 776.389 137 786.634 137C796.879 137 805.215 128.685 805.215 118.465C805.215 108.244 796.879 99.9295 786.634 99.9295Z" fill="#A398F0"/>
<path d="M1517.58 430.472C1508.93 421.139 1496.84 416 1483.5 416C1470.09 416 1457.96 421.108 1449.35 430.383C1440.64 439.76 1436.4 452.504 1437.39 466.265C1439.37 493.414 1460.05 515.499 1483.5 515.499C1506.95 515.499 1527.6 493.419 1529.6 466.274C1530.61 452.637 1526.34 439.92 1517.58 430.472ZM1561.77 614.999H1405.23C1403.18 615.025 1401.15 614.596 1399.29 613.74C1397.43 612.885 1395.78 611.626 1394.47 610.055C1391.58 606.604 1390.42 601.891 1391.28 597.124C1395.03 576.327 1406.74 558.857 1425.16 546.593C1441.51 535.706 1462.23 529.714 1483.5 529.714C1504.77 529.714 1525.49 535.71 1541.84 546.593C1560.26 558.853 1571.97 576.323 1575.72 597.12C1576.58 601.886 1575.42 606.599 1572.53 610.05C1571.22 611.622 1569.57 612.882 1567.71 613.738C1565.85 614.594 1563.82 615.025 1561.77 614.999Z" fill="#A398F0"/>
<path d="M126.582 430.472C117.928 421.139 105.841 416 92.5 416C79.0879 416 66.9609 421.108 58.3471 430.383C49.6399 439.76 45.3975 452.504 46.3936 466.265C48.368 493.414 69.051 515.499 92.5 515.499C115.949 515.499 136.596 493.419 138.602 466.274C139.611 452.637 135.342 439.92 126.582 430.472ZM170.767 614.999H14.2329C12.184 615.025 10.155 614.596 8.29336 613.74C6.43175 612.885 4.78441 611.626 3.4712 610.055C0.580657 606.604 -0.584456 601.891 0.278261 597.124C4.03152 576.327 15.7449 558.857 34.1555 546.593C50.5115 535.706 71.23 529.714 92.5 529.714C113.77 529.714 134.489 535.71 150.845 546.593C169.255 558.853 180.968 576.323 184.722 597.12C185.584 601.886 184.419 606.599 181.529 610.05C180.216 611.622 178.569 612.882 176.707 613.738C174.846 614.594 172.816 615.025 170.767 614.999Z" fill="#A398F0"/>
<path d="M393.582 1222.47C384.928 1213.14 372.841 1208 359.5 1208C346.088 1208 333.961 1213.11 325.347 1222.38C316.64 1231.76 312.397 1244.5 313.394 1258.26C315.368 1285.41 336.051 1307.5 359.5 1307.5C382.949 1307.5 403.596 1285.42 405.602 1258.27C406.611 1244.64 402.342 1231.92 393.582 1222.47ZM437.767 1407H281.233C279.184 1407.03 277.155 1406.6 275.293 1405.74C273.432 1404.89 271.784 1403.63 270.471 1402.05C267.581 1398.6 266.416 1393.89 267.278 1389.12C271.032 1368.33 282.745 1350.86 301.155 1338.59C317.511 1327.71 338.23 1321.71 359.5 1321.71C380.77 1321.71 401.489 1327.71 417.845 1338.59C436.255 1350.85 447.968 1368.32 451.722 1389.12C452.584 1393.89 451.419 1398.6 448.529 1402.05C447.216 1403.62 445.569 1404.88 443.707 1405.74C441.846 1406.59 439.816 1407.02 437.767 1407Z" fill="#A398F0"/>
<path d="M1252.58 1222.47C1243.93 1213.14 1231.84 1208 1218.5 1208C1205.09 1208 1192.96 1213.11 1184.35 1222.38C1175.64 1231.76 1171.4 1244.5 1172.39 1258.26C1174.37 1285.41 1195.05 1307.5 1218.5 1307.5C1241.95 1307.5 1262.6 1285.42 1264.6 1258.27C1265.61 1244.64 1261.34 1231.92 1252.58 1222.47ZM1296.77 1407H1140.23C1138.18 1407.03 1136.15 1406.6 1134.29 1405.74C1132.43 1404.89 1130.78 1403.63 1129.47 1402.05C1126.58 1398.6 1125.42 1393.89 1126.28 1389.12C1130.03 1368.33 1141.74 1350.86 1160.16 1338.59C1176.51 1327.71 1197.23 1321.71 1218.5 1321.71C1239.77 1321.71 1260.49 1327.71 1276.84 1338.59C1295.26 1350.85 1306.97 1368.32 1310.72 1389.12C1311.58 1393.89 1310.42 1398.6 1307.53 1402.05C1306.22 1403.62 1304.57 1404.88 1302.71 1405.74C1300.85 1406.59 1298.82 1407.02 1296.77 1407Z" fill="#A398F0"/>
<path d="M1424.58 722.854C1425.61 719.703 1423.88 716.318 1420.73 715.294C1417.58 714.27 1414.2 715.994 1413.17 719.146L1424.58 722.854ZM1280.65 1132.68C1282.16 1135.63 1285.77 1136.8 1288.72 1135.3L1336.84 1110.78C1339.79 1109.28 1340.96 1105.67 1339.46 1102.71C1337.96 1099.76 1334.34 1098.59 1331.39 1100.09L1288.62 1121.88L1266.83 1079.12C1265.33 1076.16 1261.71 1074.99 1258.76 1076.49C1255.81 1078 1254.63 1081.61 1256.14 1084.56L1280.65 1132.68ZM1413.17 719.146L1280.29 1128.1L1291.71 1131.81L1424.58 722.854L1413.17 719.146Z" fill="#A398F0"/>
<path d="M1004 1340C1007.31 1340 1010 1337.31 1010 1334C1010 1330.69 1007.31 1328 1004 1328V1340ZM569.757 1329.76C567.414 1332.1 567.414 1335.9 569.757 1338.24L607.941 1376.43C610.284 1378.77 614.083 1378.77 616.426 1376.43C618.77 1374.08 618.77 1370.28 616.426 1367.94L582.485 1334L616.426 1300.06C618.77 1297.72 618.77 1293.92 616.426 1291.57C614.083 1289.23 610.284 1289.23 607.941 1291.57L569.757 1329.76ZM1004 1328H574V1340H1004V1328Z" fill="#A398F0"/>
<path d="M266 389.748L613.877 137" stroke="#A398F0" stroke-width="12" stroke-linecap="round"/>
<path d="M429.867 327.197L450.203 198.798" stroke="#FE0000" stroke-width="12" stroke-linecap="round"/>
<path d="M504.262 273.268L375.862 252.932" stroke="#FE0000" stroke-width="12" stroke-linecap="round"/>
<path d="M1071.89 273.188L1200.29 252.852" stroke="#FE0000" stroke-width="12" stroke-linecap="round"/>
<path d="M1146.17 327.277L1125.84 198.878" stroke="#FE0000" stroke-width="12" stroke-linecap="round"/>
<path d="M286.171 1131.81C287.195 1134.96 290.58 1136.68 293.732 1135.66C296.883 1134.64 298.608 1131.25 297.584 1128.1L286.171 1131.81ZM161.724 715.654C158.772 714.149 155.158 715.323 153.654 718.276L129.139 766.39C127.634 769.343 128.808 772.956 131.761 774.46C134.713 775.965 138.326 774.791 139.831 771.838L161.622 729.07L204.391 750.861C207.343 752.366 210.956 751.192 212.461 748.239C213.965 745.287 212.791 741.674 209.838 740.169L161.724 715.654ZM297.584 1128.1L164.706 719.146L153.294 722.854L286.171 1131.81L297.584 1128.1Z" fill="#A398F0"/>
<path d="M962 137L1309.88 389.748" stroke="#A398F0" stroke-width="12" stroke-linecap="round"/>
</svg>
