<svg width="1250" height="250" viewBox="0 0 1250 250" fill="none" xmlns="http://www.w3.org/2000/svg">
<rect x="5" y="5" width="1240" height="240" rx="5" fill="white" stroke="#A398F0" stroke-width="10"/>
<path d="M62.4167 187C62.4167 187 52 187 52 176.583C52 166.167 62.4167 134.917 114.5 134.917C166.583 134.917 177 166.167 177 176.583C177 187 166.583 187 166.583 187H62.4167ZM114.5 124.5C122.788 124.5 130.737 121.208 136.597 115.347C142.458 109.487 145.75 101.538 145.75 93.25C145.75 84.962 142.458 77.0134 136.597 71.1529C130.737 65.2924 122.788 62 114.5 62C106.212 62 98.2634 65.2924 92.4029 71.1529C86.5424 77.0134 83.25 84.962 83.25 93.25C83.25 101.538 86.5424 109.487 92.4029 115.347C98.2634 121.208 106.212 124.5 114.5 124.5Z" fill="#A398F0"/>
<path d="M141.531 159.5C141.22 159.5 140.922 159.623 140.703 159.843C140.483 160.063 140.359 160.361 140.359 160.672V165.359H135.672C135.361 165.359 135.063 165.483 134.843 165.703C134.623 165.922 134.5 166.22 134.5 166.531V171.219C134.5 171.53 134.623 171.828 134.843 172.047C135.063 172.267 135.361 172.391 135.672 172.391H140.359V177.078C140.359 177.389 140.483 177.687 140.703 177.907C140.922 178.127 141.22 178.25 141.531 178.25H146.219C146.53 178.25 146.828 178.127 147.047 177.907C147.267 177.687 147.391 177.389 147.391 177.078V172.391H152.078C152.389 172.391 152.687 172.267 152.907 172.047C153.127 171.828 153.25 171.53 153.25 171.219V166.531C153.25 166.22 153.127 165.922 152.907 165.703C152.687 165.483 152.389 165.359 152.078 165.359H147.391V160.672C147.391 160.361 147.267 160.063 147.047 159.843C146.828 159.623 146.53 159.5 146.219 159.5H141.531Z" fill="white"/>
<path d="M691 152H661M661 152C661 152 686 187 723.5 187C758.02 187 786 162 786 132M661 152V187M756 97H786M786 97C786 97 761 62 723.5 62C688.98 62 661 87 661 117M786 97V62" stroke="#A398F0" stroke-width="20" stroke-linecap="round" stroke-linejoin="round"/>
<path d="M245.31 80.2756C245.196 79.1297 244.708 78.2396 243.847 77.6051C242.985 76.9706 241.815 76.6534 240.338 76.6534C239.334 76.6534 238.487 76.7955 237.795 77.0795C237.104 77.3542 236.574 77.7377 236.205 78.2301C235.845 78.7225 235.665 79.2812 235.665 79.9062C235.646 80.4271 235.755 80.8816 235.991 81.2699C236.238 81.6581 236.574 81.9943 237 82.2784C237.426 82.553 237.919 82.7945 238.477 83.0028C239.036 83.2017 239.633 83.3722 240.267 83.5142L242.881 84.1392C244.15 84.4233 245.314 84.8021 246.375 85.2756C247.436 85.7491 248.354 86.3314 249.131 87.0227C249.907 87.714 250.509 88.5284 250.935 89.4659C251.37 90.4034 251.593 91.4782 251.602 92.6903C251.593 94.4706 251.138 96.0142 250.239 97.321C249.348 98.6184 248.061 99.6269 246.375 100.347C244.699 101.057 242.677 101.412 240.31 101.412C237.961 101.412 235.916 101.052 234.173 100.332C232.44 99.6127 231.086 98.5473 230.111 97.1364C229.145 95.7159 228.638 93.9593 228.591 91.8665H234.543C234.609 92.8419 234.888 93.6562 235.381 94.3097C235.883 94.9536 236.55 95.4413 237.384 95.7727C238.226 96.0947 239.178 96.2557 240.239 96.2557C241.28 96.2557 242.185 96.1042 242.952 95.8011C243.728 95.4981 244.33 95.0767 244.756 94.5369C245.182 93.9972 245.395 93.3769 245.395 92.6761C245.395 92.0227 245.201 91.4735 244.812 91.0284C244.434 90.5833 243.875 90.2045 243.136 89.892C242.407 89.5795 241.512 89.2955 240.452 89.0398L237.284 88.2443C234.831 87.6477 232.895 86.715 231.474 85.446C230.054 84.1771 229.348 82.4678 229.358 80.3182C229.348 78.5568 229.817 77.018 230.764 75.7017C231.721 74.3854 233.032 73.358 234.699 72.6193C236.366 71.8807 238.259 71.5114 240.381 71.5114C242.54 71.5114 244.424 71.8807 246.034 72.6193C247.653 73.358 248.913 74.3854 249.812 75.7017C250.712 77.018 251.176 78.5426 251.205 80.2756H245.31ZM259.93 101L253.992 79.1818H260.114L263.495 93.8409H263.694L267.217 79.1818H273.225L276.805 93.7557H276.989L280.313 79.1818H286.421L280.498 101H274.092L270.342 87.2784H270.072L266.322 101H259.93ZM295.871 101.412C294.479 101.412 293.238 101.17 292.149 100.688C291.06 100.195 290.198 99.4706 289.564 98.5142C288.939 97.5483 288.626 96.3456 288.626 94.9062C288.626 93.6941 288.849 92.6761 289.294 91.8523C289.739 91.0284 290.345 90.3655 291.112 89.8636C291.879 89.3617 292.75 88.983 293.726 88.7273C294.711 88.4716 295.743 88.2917 296.822 88.1875C298.091 88.0549 299.114 87.9318 299.891 87.8182C300.667 87.6951 301.231 87.5152 301.581 87.2784C301.931 87.0417 302.107 86.6913 302.107 86.2273V86.142C302.107 85.2424 301.822 84.5464 301.254 84.054C300.696 83.5616 299.9 83.3153 298.868 83.3153C297.779 83.3153 296.912 83.5568 296.268 84.0398C295.625 84.5133 295.198 85.1098 294.99 85.8295L289.393 85.375C289.678 84.0492 290.236 82.9034 291.07 81.9375C291.903 80.9621 292.978 80.214 294.294 79.6932C295.62 79.1629 297.154 78.8977 298.896 78.8977C300.108 78.8977 301.268 79.0398 302.376 79.3239C303.494 79.608 304.483 80.0483 305.345 80.6449C306.216 81.2415 306.903 82.0085 307.405 82.946C307.907 83.8741 308.158 84.9867 308.158 86.2841V101H302.419V97.9744H302.249C301.898 98.6562 301.429 99.2576 300.842 99.7784C300.255 100.29 299.55 100.692 298.726 100.986C297.902 101.27 296.95 101.412 295.871 101.412ZM297.604 97.2358C298.494 97.2358 299.28 97.0606 299.962 96.7102C300.643 96.3504 301.179 95.8674 301.567 95.2614C301.955 94.6553 302.149 93.9687 302.149 93.2017V90.8864C301.96 91.0095 301.699 91.1231 301.368 91.2273C301.046 91.322 300.681 91.4119 300.274 91.4972C299.867 91.5729 299.46 91.6439 299.053 91.7102C298.645 91.767 298.276 91.8191 297.945 91.8665C297.234 91.9706 296.614 92.1364 296.084 92.3636C295.554 92.5909 295.142 92.8987 294.848 93.2869C294.554 93.6657 294.408 94.1392 294.408 94.7074C294.408 95.5312 294.706 96.161 295.303 96.5966C295.909 97.0227 296.676 97.2358 297.604 97.2358ZM312.852 109.182V79.1818H318.818V82.8466H319.088C319.353 82.2595 319.737 81.6629 320.239 81.0568C320.75 80.4413 321.413 79.9299 322.227 79.5227C323.051 79.1061 324.074 78.8977 325.295 78.8977C326.886 78.8977 328.354 79.3144 329.699 80.1477C331.044 80.9716 332.118 82.2169 332.923 83.8835C333.728 85.5407 334.131 87.6193 334.131 90.1193C334.131 92.553 333.738 94.608 332.952 96.2841C332.175 97.9508 331.115 99.215 329.77 100.077C328.435 100.929 326.938 101.355 325.281 101.355C324.107 101.355 323.108 101.161 322.284 100.773C321.47 100.384 320.802 99.8968 320.281 99.3097C319.76 98.7131 319.363 98.1117 319.088 97.5057H318.903V109.182H312.852ZM318.776 90.0909C318.776 91.3883 318.955 92.5199 319.315 93.4858C319.675 94.4517 320.196 95.2045 320.878 95.7443C321.56 96.2746 322.388 96.5398 323.364 96.5398C324.348 96.5398 325.182 96.2699 325.864 95.7301C326.545 95.1809 327.062 94.4233 327.412 93.4574C327.772 92.482 327.952 91.3598 327.952 90.0909C327.952 88.8314 327.777 87.7235 327.426 86.767C327.076 85.8106 326.56 85.0625 325.878 84.5227C325.196 83.983 324.358 83.7131 323.364 83.7131C322.379 83.7131 321.545 83.9735 320.864 84.4943C320.191 85.0152 319.675 85.7538 319.315 86.7102C318.955 87.6667 318.776 88.7936 318.776 90.0909ZM338.165 109.182V79.1818H344.131V82.8466H344.401C344.666 82.2595 345.049 81.6629 345.551 81.0568C346.063 80.4413 346.725 79.9299 347.54 79.5227C348.364 79.1061 349.386 78.8977 350.608 78.8977C352.199 78.8977 353.667 79.3144 355.011 80.1477C356.356 80.9716 357.431 82.2169 358.236 83.8835C359.041 85.5407 359.443 87.6193 359.443 90.1193C359.443 92.553 359.05 94.608 358.264 96.2841C357.488 97.9508 356.427 99.215 355.082 100.077C353.747 100.929 352.251 101.355 350.594 101.355C349.42 101.355 348.42 101.161 347.597 100.773C346.782 100.384 346.115 99.8968 345.594 99.3097C345.073 98.7131 344.675 98.1117 344.401 97.5057H344.216V109.182H338.165ZM344.088 90.0909C344.088 91.3883 344.268 92.5199 344.628 93.4858C344.988 94.4517 345.509 95.2045 346.19 95.7443C346.872 96.2746 347.701 96.5398 348.676 96.5398C349.661 96.5398 350.494 96.2699 351.176 95.7301C351.858 95.1809 352.374 94.4233 352.724 93.4574C353.084 92.482 353.264 91.3598 353.264 90.0909C353.264 88.8314 353.089 87.7235 352.739 86.767C352.388 85.8106 351.872 85.0625 351.19 84.5227C350.509 83.983 349.67 83.7131 348.676 83.7131C347.691 83.7131 346.858 83.9735 346.176 84.4943C345.504 85.0152 344.988 85.7538 344.628 86.7102C344.268 87.6667 344.088 88.7936 344.088 90.0909ZM373.42 101.426C371.176 101.426 369.244 100.972 367.625 100.062C366.015 99.1439 364.775 97.8466 363.903 96.1705C363.032 94.4848 362.597 92.4915 362.597 90.1903C362.597 87.946 363.032 85.9763 363.903 84.2812C364.775 82.5862 366.001 81.2652 367.582 80.3182C369.173 79.3712 371.039 78.8977 373.179 78.8977C374.618 78.8977 375.958 79.1297 377.199 79.5938C378.449 80.0483 379.538 80.7348 380.466 81.6534C381.403 82.572 382.133 83.7273 382.653 85.1193C383.174 86.5019 383.435 88.1212 383.435 89.9773V91.6392H365.011V87.8892H377.739C377.739 87.018 377.549 86.2462 377.17 85.5739C376.792 84.9015 376.266 84.3759 375.594 83.9972C374.931 83.6089 374.159 83.4148 373.278 83.4148C372.36 83.4148 371.545 83.6278 370.835 84.054C370.134 84.4706 369.585 85.0341 369.188 85.7443C368.79 86.4451 368.586 87.2263 368.577 88.0881V91.6534C368.577 92.733 368.776 93.6657 369.173 94.4517C369.58 95.2377 370.153 95.8438 370.892 96.2699C371.631 96.696 372.507 96.9091 373.52 96.9091C374.192 96.9091 374.808 96.8144 375.366 96.625C375.925 96.4356 376.403 96.1515 376.801 95.7727C377.199 95.3939 377.502 94.9299 377.71 94.3807L383.307 94.75C383.023 96.0947 382.44 97.2689 381.56 98.2727C380.688 99.267 379.562 100.044 378.179 100.602C376.806 101.152 375.22 101.426 373.42 101.426ZM387.384 101V79.1818H393.25V82.9886H393.477C393.875 81.6345 394.543 80.6117 395.48 79.9205C396.418 79.2197 397.497 78.8693 398.719 78.8693C399.022 78.8693 399.348 78.8883 399.699 78.9261C400.049 78.964 400.357 79.0161 400.622 79.0824V84.4517C400.338 84.3665 399.945 84.2907 399.443 84.2244C398.941 84.1581 398.482 84.125 398.065 84.125C397.175 84.125 396.38 84.3191 395.679 84.7074C394.988 85.0862 394.438 85.6165 394.031 86.2983C393.634 86.9801 393.435 87.7661 393.435 88.6562V101H387.384ZM421.904 85.4034L416.364 85.7443C416.27 85.2708 416.066 84.8447 415.754 84.4659C415.441 84.0777 415.029 83.7699 414.518 83.5426C414.016 83.3059 413.415 83.1875 412.714 83.1875C411.776 83.1875 410.986 83.3864 410.342 83.7841C409.698 84.1723 409.376 84.6932 409.376 85.3466C409.376 85.8674 409.584 86.3078 410.001 86.6676C410.417 87.0275 411.132 87.3163 412.146 87.5341L416.094 88.3295C418.216 88.7652 419.797 89.4659 420.839 90.4318C421.88 91.3977 422.401 92.6667 422.401 94.2386C422.401 95.6686 421.98 96.9233 421.137 98.0028C420.304 99.0824 419.158 99.9252 417.7 100.531C416.251 101.128 414.579 101.426 412.685 101.426C409.797 101.426 407.496 100.825 405.782 99.6222C404.077 98.41 403.078 96.7623 402.785 94.679L408.737 94.3665C408.916 95.2472 409.352 95.9195 410.043 96.3835C410.735 96.8381 411.62 97.0653 412.7 97.0653C413.76 97.0653 414.612 96.8617 415.256 96.4545C415.91 96.0379 416.241 95.5028 416.251 94.8494C416.241 94.3002 416.009 93.8504 415.555 93.5C415.1 93.1402 414.399 92.8655 413.452 92.6761L409.674 91.9233C407.543 91.4972 405.957 90.7585 404.915 89.7074C403.883 88.6562 403.367 87.3163 403.367 85.6875C403.367 84.286 403.746 83.0786 404.504 82.0653C405.271 81.0521 406.345 80.2708 407.728 79.7216C409.12 79.1723 410.749 78.8977 412.614 78.8977C415.37 78.8977 417.539 79.4801 419.12 80.6449C420.711 81.8097 421.639 83.3958 421.904 85.4034ZM429.749 101.369C428.811 101.369 428.006 101.038 427.334 100.375C426.671 99.7027 426.339 98.8977 426.339 97.9602C426.339 97.0322 426.671 96.2367 427.334 95.5739C428.006 94.911 428.811 94.5795 429.749 94.5795C430.658 94.5795 431.453 94.911 432.135 95.5739C432.817 96.2367 433.158 97.0322 433.158 97.9602C433.158 98.5852 432.997 99.1581 432.675 99.679C432.362 100.19 431.95 100.602 431.439 100.915C430.928 101.218 430.364 101.369 429.749 101.369ZM429.749 86.0852C428.811 86.0852 428.006 85.7538 427.334 85.0909C426.671 84.428 426.339 83.6231 426.339 82.6761C426.339 81.7481 426.671 80.9574 427.334 80.304C428.006 79.6411 428.811 79.3097 429.749 79.3097C430.658 79.3097 431.453 79.6411 432.135 80.304C432.817 80.9574 433.158 81.7481 433.158 82.6761C433.158 83.3106 432.997 83.8883 432.675 84.4091C432.362 84.9205 431.95 85.3277 431.439 85.6307C430.928 85.9337 430.364 86.0852 429.749 86.0852Z" fill="#A398F0"/>
<path d="M848.528 101V71.9091H868.131V76.9801H854.679V83.9119H867.122V88.983H854.679V95.929H868.188V101H848.528ZM872.907 101V79.1818H878.674V83.0312H878.93C879.384 81.7528 880.142 80.7443 881.202 80.0057C882.263 79.267 883.532 78.8977 885.009 78.8977C886.505 78.8977 887.779 79.2718 888.83 80.0199C889.881 80.7585 890.582 81.7623 890.933 83.0312H891.16C891.605 81.7812 892.41 80.7822 893.575 80.0341C894.749 79.2765 896.136 78.8977 897.737 78.8977C899.772 78.8977 901.425 79.5464 902.694 80.8438C903.972 82.1316 904.612 83.9593 904.612 86.3267V101H898.575V87.5199C898.575 86.3078 898.253 85.3987 897.609 84.7926C896.965 84.1866 896.16 83.8835 895.194 83.8835C894.095 83.8835 893.238 84.2339 892.623 84.9347C892.007 85.6259 891.7 86.5398 891.7 87.6761V101H885.833V87.392C885.833 86.322 885.525 85.4697 884.91 84.8352C884.304 84.2008 883.504 83.8835 882.509 83.8835C881.837 83.8835 881.231 84.054 880.691 84.3949C880.161 84.7263 879.739 85.1951 879.427 85.8011C879.114 86.3977 878.958 87.0985 878.958 87.9034V101H872.907ZM915.613 101.412C914.221 101.412 912.98 101.17 911.891 100.688C910.802 100.195 909.941 99.4706 909.306 98.5142C908.681 97.5483 908.369 96.3456 908.369 94.9062C908.369 93.6941 908.591 92.6761 909.036 91.8523C909.481 91.0284 910.087 90.3655 910.854 89.8636C911.621 89.3617 912.493 88.983 913.468 88.7273C914.453 88.4716 915.485 88.2917 916.565 88.1875C917.834 88.0549 918.856 87.9318 919.633 87.8182C920.409 87.6951 920.973 87.5152 921.323 87.2784C921.674 87.0417 921.849 86.6913 921.849 86.2273V86.142C921.849 85.2424 921.565 84.5464 920.996 84.054C920.438 83.5616 919.642 83.3153 918.61 83.3153C917.521 83.3153 916.655 83.5568 916.011 84.0398C915.367 84.5133 914.941 85.1098 914.732 85.8295L909.136 85.375C909.42 84.0492 909.978 82.9034 910.812 81.9375C911.645 80.9621 912.72 80.214 914.036 79.6932C915.362 79.1629 916.896 78.8977 918.638 78.8977C919.851 78.8977 921.011 79.0398 922.119 79.3239C923.236 79.608 924.226 80.0483 925.087 80.6449C925.959 81.2415 926.645 82.0085 927.147 82.946C927.649 83.8741 927.9 84.9867 927.9 86.2841V101H922.161V97.9744H921.991C921.64 98.6562 921.172 99.2576 920.585 99.7784C919.997 100.29 919.292 100.692 918.468 100.986C917.644 101.27 916.692 101.412 915.613 101.412ZM917.346 97.2358C918.236 97.2358 919.022 97.0606 919.704 96.7102C920.386 96.3504 920.921 95.8674 921.309 95.2614C921.697 94.6553 921.891 93.9687 921.891 93.2017V90.8864C921.702 91.0095 921.442 91.1231 921.11 91.2273C920.788 91.322 920.424 91.4119 920.016 91.4972C919.609 91.5729 919.202 91.6439 918.795 91.7102C918.388 91.767 918.018 91.8191 917.687 91.8665C916.977 91.9706 916.356 92.1364 915.826 92.3636C915.296 92.5909 914.884 92.8987 914.59 93.2869C914.297 93.6657 914.15 94.1392 914.15 94.7074C914.15 95.5312 914.448 96.161 915.045 96.5966C915.651 97.0227 916.418 97.2358 917.346 97.2358ZM932.594 101V79.1818H938.646V101H932.594ZM935.634 76.3693C934.735 76.3693 933.963 76.071 933.319 75.4744C932.684 74.8684 932.367 74.1439 932.367 73.3011C932.367 72.4678 932.684 71.7528 933.319 71.1562C933.963 70.5502 934.735 70.2472 935.634 70.2472C936.534 70.2472 937.301 70.5502 937.935 71.1562C938.579 71.7528 938.901 72.4678 938.901 73.3011C938.901 74.1439 938.579 74.8684 937.935 75.4744C937.301 76.071 936.534 76.3693 935.634 76.3693ZM949.544 71.9091V101H943.493V71.9091H949.544ZM972.545 85.4034L967.005 85.7443C966.91 85.2708 966.707 84.8447 966.394 84.4659C966.082 84.0777 965.67 83.7699 965.158 83.5426C964.656 83.3059 964.055 83.1875 963.354 83.1875C962.417 83.1875 961.626 83.3864 960.982 83.7841C960.338 84.1723 960.016 84.6932 960.016 85.3466C960.016 85.8674 960.225 86.3078 960.641 86.6676C961.058 87.0275 961.773 87.3163 962.786 87.5341L966.735 88.3295C968.856 88.7652 970.438 89.4659 971.479 90.4318C972.521 91.3977 973.042 92.6667 973.042 94.2386C973.042 95.6686 972.621 96.9233 971.778 98.0028C970.944 99.0824 969.799 99.9252 968.34 100.531C966.891 101.128 965.22 101.426 963.326 101.426C960.438 101.426 958.137 100.825 956.423 99.6222C954.718 98.41 953.719 96.7623 953.425 94.679L959.377 94.3665C959.557 95.2472 959.993 95.9195 960.684 96.3835C961.375 96.8381 962.261 97.0653 963.34 97.0653C964.401 97.0653 965.253 96.8617 965.897 96.4545C966.55 96.0379 966.882 95.5028 966.891 94.8494C966.882 94.3002 966.65 93.8504 966.195 93.5C965.741 93.1402 965.04 92.8655 964.093 92.6761L960.315 91.9233C958.184 91.4972 956.598 90.7585 955.556 89.7074C954.524 88.6562 954.008 87.3163 954.008 85.6875C954.008 84.286 954.387 83.0786 955.144 82.0653C955.911 81.0521 956.986 80.2708 958.369 79.7216C959.761 79.1723 961.389 78.8977 963.255 78.8977C966.011 78.8977 968.179 79.4801 969.761 80.6449C971.352 81.8097 972.28 83.3958 972.545 85.4034ZM1002 80.2756C1001.89 79.1297 1001.4 78.2396 1000.54 77.6051C999.68 76.9706 998.511 76.6534 997.033 76.6534C996.03 76.6534 995.182 76.7955 994.491 77.0795C993.799 77.3542 993.269 77.7377 992.9 78.2301C992.54 78.7225 992.36 79.2812 992.36 79.9062C992.341 80.4271 992.45 80.8816 992.687 81.2699C992.933 81.6581 993.269 81.9943 993.695 82.2784C994.121 82.553 994.614 82.7945 995.173 83.0028C995.731 83.2017 996.328 83.3722 996.962 83.5142L999.576 84.1392C1000.84 84.4233 1002.01 84.8021 1003.07 85.2756C1004.13 85.7491 1005.05 86.3314 1005.83 87.0227C1006.6 87.714 1007.2 88.5284 1007.63 89.4659C1008.07 90.4034 1008.29 91.4782 1008.3 92.6903C1008.29 94.4706 1007.83 96.0142 1006.93 97.321C1006.04 98.6184 1004.76 99.6269 1003.07 100.347C1001.39 101.057 999.372 101.412 997.005 101.412C994.656 101.412 992.611 101.052 990.869 100.332C989.136 99.6127 987.781 98.5473 986.806 97.1364C985.84 95.7159 985.334 93.9593 985.286 91.8665H991.238C991.304 92.8419 991.584 93.6562 992.076 94.3097C992.578 94.9536 993.246 95.4413 994.079 95.7727C994.922 96.0947 995.873 96.2557 996.934 96.2557C997.976 96.2557 998.88 96.1042 999.647 95.8011C1000.42 95.4981 1001.02 95.0767 1001.45 94.5369C1001.88 93.9972 1002.09 93.3769 1002.09 92.6761C1002.09 92.0227 1001.9 91.4735 1001.51 91.0284C1001.13 90.5833 1000.57 90.2045 999.832 89.892C999.103 89.5795 998.208 89.2955 997.147 89.0398L993.979 88.2443C991.527 87.6477 989.59 86.715 988.17 85.446C986.749 84.1771 986.044 82.4678 986.053 80.3182C986.044 78.5568 986.513 77.018 987.46 75.7017C988.416 74.3854 989.728 73.358 991.394 72.6193C993.061 71.8807 994.955 71.5114 997.076 71.5114C999.235 71.5114 1001.12 71.8807 1002.73 72.6193C1004.35 73.358 1005.61 74.3854 1006.51 75.7017C1007.41 77.018 1007.87 78.5426 1007.9 80.2756H1002ZM1022.26 101.426C1020.02 101.426 1018.09 100.972 1016.47 100.062C1014.86 99.1439 1013.62 97.8466 1012.75 96.1705C1011.88 94.4848 1011.44 92.4915 1011.44 90.1903C1011.44 87.946 1011.88 85.9763 1012.75 84.2812C1013.62 82.5862 1014.84 81.2652 1016.43 80.3182C1018.02 79.3712 1019.88 78.8977 1022.02 78.8977C1023.46 78.8977 1024.8 79.1297 1026.04 79.5938C1027.29 80.0483 1028.38 80.7348 1029.31 81.6534C1030.25 82.572 1030.98 83.7273 1031.5 85.1193C1032.02 86.5019 1032.28 88.1212 1032.28 89.9773V91.6392H1013.86V87.8892H1026.58C1026.58 87.018 1026.39 86.2462 1026.01 85.5739C1025.64 84.9015 1025.11 84.3759 1024.44 83.9972C1023.77 83.6089 1023 83.4148 1022.12 83.4148C1021.2 83.4148 1020.39 83.6278 1019.68 84.054C1018.98 84.4706 1018.43 85.0341 1018.03 85.7443C1017.63 86.4451 1017.43 87.2263 1017.42 88.0881V91.6534C1017.42 92.733 1017.62 93.6657 1018.02 94.4517C1018.42 95.2377 1019 95.8438 1019.74 96.2699C1020.47 96.696 1021.35 96.9091 1022.36 96.9091C1023.04 96.9091 1023.65 96.8144 1024.21 96.625C1024.77 96.4356 1025.25 96.1515 1025.64 95.7727C1026.04 95.3939 1026.35 94.9299 1026.55 94.3807L1032.15 94.75C1031.87 96.0947 1031.28 97.2689 1030.4 98.2727C1029.53 99.267 1028.41 100.044 1027.02 100.602C1025.65 101.152 1024.06 101.426 1022.26 101.426ZM1042.28 88.3864V101H1036.23V79.1818H1041.99V83.0312H1042.25C1042.73 81.7623 1043.54 80.7585 1044.68 80.0199C1045.82 79.2718 1047.19 78.8977 1048.81 78.8977C1050.33 78.8977 1051.65 79.2292 1052.78 79.892C1053.9 80.5549 1054.78 81.5019 1055.4 82.733C1056.03 83.9545 1056.34 85.4129 1056.34 87.108V101H1050.29V88.1875C1050.3 86.8523 1049.96 85.8106 1049.27 85.0625C1048.58 84.3049 1047.62 83.9261 1046.41 83.9261C1045.6 83.9261 1044.88 84.1013 1044.25 84.4517C1043.64 84.8021 1043.15 85.3134 1042.8 85.9858C1042.46 86.6487 1042.29 87.4489 1042.28 88.3864ZM1072.72 79.1818V83.7273H1059.58V79.1818H1072.72ZM1062.56 73.9545H1068.61V94.2955C1068.61 94.8542 1068.7 95.2898 1068.87 95.6023C1069.04 95.9053 1069.27 96.1184 1069.58 96.2415C1069.89 96.3646 1070.25 96.4261 1070.66 96.4261C1070.94 96.4261 1071.22 96.4025 1071.51 96.3551C1071.79 96.2983 1072.01 96.2557 1072.16 96.2273L1073.11 100.73C1072.81 100.825 1072.38 100.934 1071.83 101.057C1071.29 101.189 1070.62 101.27 1069.83 101.298C1068.37 101.355 1067.09 101.161 1066 100.716C1064.91 100.271 1064.06 99.5795 1063.45 98.642C1062.85 97.7045 1062.55 96.5208 1062.56 95.0909V73.9545ZM1080.19 101.369C1079.26 101.369 1078.45 101.038 1077.78 100.375C1077.12 99.7027 1076.78 98.8977 1076.78 97.9602C1076.78 97.0322 1077.12 96.2367 1077.78 95.5739C1078.45 94.911 1079.26 94.5795 1080.19 94.5795C1081.1 94.5795 1081.9 94.911 1082.58 95.5739C1083.26 96.2367 1083.6 97.0322 1083.6 97.9602C1083.6 98.5852 1083.44 99.1581 1083.12 99.679C1082.81 100.19 1082.4 100.602 1081.88 100.915C1081.37 101.218 1080.81 101.369 1080.19 101.369ZM1080.19 86.0852C1079.26 86.0852 1078.45 85.7538 1077.78 85.0909C1077.12 84.428 1076.78 83.6231 1076.78 82.6761C1076.78 81.7481 1077.12 80.9574 1077.78 80.304C1078.45 79.6411 1079.26 79.3097 1080.19 79.3097C1081.1 79.3097 1081.9 79.6411 1082.58 80.304C1083.26 80.9574 1083.6 81.7481 1083.6 82.6761C1083.6 83.3106 1083.44 83.8883 1083.12 84.4091C1082.81 84.9205 1082.4 85.3277 1081.88 85.6307C1081.37 85.9337 1080.81 86.0852 1080.19 86.0852Z" fill="#A398F0"/>
<g transform="translate(0, 0)"> <!-- Adjust the translation values as needed -->

<text x="325" y="165" font-family="Arial" font-size="50" font-weight="bold" fill="#A398F0" text-anchor="middle">@swappers</text>

<text x="950" y="165" font-family="Arial" font-size="50" font-weight="bold" fill="#A398F0" text-anchor="middle">@emails</text>
</g>

</svg>
